<?xml version="1.0" encoding="UTF-8" standalone="no"?>
<!DOCTYPE svg PUBLIC "-//W3C//DTD SVG 1.1//EN" "http://www.w3.org/Graphics/SVG/1.1/DTD/svg11.dtd">
<svg xmlns="http://www.w3.org/2000/svg" version="1.1" viewBox="0.00 0.00 500.00 500.00">
<g stroke-width="2.00" fill="none" stroke-linecap="butt">
<path stroke="#a87c81" vector-effect="non-scaling-stroke" d="
  M 445.48 250.00
  A 195.49 195.49 0.0 0 0 249.99 54.51
  A 195.49 195.49 0.0 0 0 54.50 250.00
  A 195.49 195.49 0.0 0 0 249.99 445.49
  A 195.49 195.49 0.0 0 0 445.48 250.00"
/>
<path stroke="#865a06" vector-effect="non-scaling-stroke" d="
  M 249.23 63.73
  A 3.62 3.62 0.0 0 0 245.61 60.11
  A 3.62 3.62 0.0 0 0 241.99 63.73
  A 3.62 3.62 0.0 0 0 245.61 67.35
  A 3.62 3.62 0.0 0 0 249.23 63.73"
/>
<path stroke="#865a06" vector-effect="non-scaling-stroke" d="
  M 266.43 64.18
  A 3.55 3.55 0.0 0 0 262.88 60.63
  A 3.55 3.55 0.0 0 0 259.33 64.18
  A 3.55 3.55 0.0 0 0 262.88 67.73
  A 3.55 3.55 0.0 0 0 266.43 64.18"
/>
<path stroke="#865a06" vector-effect="non-scaling-stroke" d="
  M 231.7160 64.1070
  A 3.60 3.40 -12.4 0 0 227.4699 61.5593
  A 3.60 3.40 -12.4 0 0 224.6840 65.6530
  A 3.60 3.40 -12.4 0 0 228.9301 68.2007
  A 3.60 3.40 -12.4 0 0 231.7160 64.1070"
/>
<path stroke="#865a06" vector-effect="non-scaling-stroke" d="
  M 283.7350 66.7655
  A 3.54 3.32 11.0 0 0 280.8935 62.8310
  A 3.54 3.32 11.0 0 0 276.7850 65.4145
  A 3.54 3.32 11.0 0 0 279.6265 69.3490
  A 3.54 3.32 11.0 0 0 283.7350 66.7655"
/>
<path stroke="#865a06" vector-effect="non-scaling-stroke" d="
  M 214.32 67.83
  A 3.43 3.43 0.0 0 0 210.89 64.40
  A 3.43 3.43 0.0 0 0 207.46 67.83
  A 3.43 3.43 0.0 0 0 210.89 71.26
  A 3.43 3.43 0.0 0 0 214.32 67.83"
/>
<path stroke="#865a06" vector-effect="non-scaling-stroke" d="
  M 300.9503 70.1337
  A 3.60 3.34 4.2 0 0 297.6046 66.5390
  A 3.60 3.34 4.2 0 0 293.7697 69.6063
  A 3.60 3.34 4.2 0 0 297.1154 73.2010
  A 3.60 3.34 4.2 0 0 300.9503 70.1337"
/>
<path stroke="#865a06" vector-effect="non-scaling-stroke" d="
  M 197.3029 70.6745
  A 3.61 3.41 -25.7 0 0 192.5712 69.1673
  A 3.61 3.41 -25.7 0 0 190.7971 73.8055
  A 3.61 3.41 -25.7 0 0 195.5288 75.3127
  A 3.61 3.41 -25.7 0 0 197.3029 70.6745"
/>
<path stroke="#865a06" vector-effect="non-scaling-stroke" d="
  M 317.4450 76.2255
  A 3.58 3.35 19.0 0 0 315.1507 71.8925
  A 3.58 3.35 19.0 0 0 310.6750 73.8945
  A 3.58 3.35 19.0 0 0 312.9693 78.2275
  A 3.58 3.35 19.0 0 0 317.4450 76.2255"
/>
<path stroke="#865a06" vector-effect="non-scaling-stroke" d="
  M 180.8436 76.8843
  A 3.60 3.39 -24.2 0 0 176.1704 75.2679
  A 3.60 3.39 -24.2 0 0 174.2764 79.8357
  A 3.60 3.39 -24.2 0 0 178.9496 81.4521
  A 3.60 3.39 -24.2 0 0 180.8436 76.8843"
/>
<path stroke="#a87c81" vector-effect="non-scaling-stroke" d="
  M 266.89 75.86
  C 249.80 74.63 231.78 74.83 214.75 78.66
  Q 199.83 82.02 188.13 86.44
  C 165.61 94.95 144.87 108.09 127.71 124.97
  Q 85.95 166.02 76.67 225.96
  Q 76.52 226.87 77.45 226.87
  L 422.25 226.83
  Q 423.49 226.83 423.30 225.60
  Q 417.25 186.35 396.55 154.57
  Q 390.79 145.73 384.60 138.37
  Q 342.11 87.91 275.60 76.87
  Q 271.46 76.18 266.89 75.86"
/>
<path stroke="#865a06" vector-effect="non-scaling-stroke" d="
  M 333.6877 82.6492
  A 3.59 3.37 15.0 0 0 331.0922 78.4648
  A 3.59 3.37 15.0 0 0 326.7523 80.7908
  A 3.59 3.37 15.0 0 0 329.3478 84.9752
  A 3.59 3.37 15.0 0 0 333.6877 82.6492"
/>
<path stroke="#865a06" vector-effect="non-scaling-stroke" d="
  M 165.25 85.89
  A 3.43 3.43 0.0 0 0 161.82 82.46
  A 3.43 3.43 0.0 0 0 158.39 85.89
  A 3.43 3.43 0.0 0 0 161.82 89.32
  A 3.43 3.43 0.0 0 0 165.25 85.89"
/>
<path stroke="#865a06" vector-effect="non-scaling-stroke" d="
  M 348.2558 92.2707
  A 3.54 3.33 39.9 0 0 347.6760 87.4453
  A 3.54 3.33 39.9 0 0 342.8242 87.7293
  A 3.54 3.33 39.9 0 0 343.4040 92.5547
  A 3.54 3.33 39.9 0 0 348.2558 92.2707"
/>
<path stroke="#865a06" vector-effect="non-scaling-stroke" d="
  M 144.6917 97.6261
  A 3.57 3.43 127.4 0 0 149.5848 96.8733
  A 3.57 3.43 127.4 0 0 149.0283 91.9539
  A 3.57 3.43 127.4 0 0 144.1352 92.7067
  A 3.57 3.43 127.4 0 0 144.6917 97.6261"
/>
<path stroke="#865a06" vector-effect="non-scaling-stroke" d="
  M 363.45 99.68
  A 3.45 3.45 0.0 0 0 360.00 96.23
  A 3.45 3.45 0.0 0 0 356.55 99.68
  A 3.45 3.45 0.0 0 0 360.00 103.13
  A 3.45 3.45 0.0 0 0 363.45 99.68"
/>
<path stroke="#865a06" vector-effect="non-scaling-stroke" d="
  M 135.8244 102.9226
  A 3.61 3.40 -36.7 0 0 130.8981 102.3540
  A 3.61 3.40 -36.7 0 0 130.0356 107.2374
  A 3.61 3.40 -36.7 0 0 134.9619 107.8060
  A 3.61 3.40 -36.7 0 0 135.8244 102.9226"
/>
<path stroke="#865a06" vector-effect="non-scaling-stroke" d="
  M 376.2425 113.3535
  A 3.66 3.47 44.9 0 0 376.0994 108.3121
  A 3.66 3.47 44.9 0 0 371.0575 108.1865
  A 3.66 3.47 44.9 0 0 371.2006 113.2279
  A 3.66 3.47 44.9 0 0 376.2425 113.3535"
/>
<path stroke="#865a06" vector-effect="non-scaling-stroke" d="
  M 122.8410 114.7100
  A 3.69 3.42 -34.5 0 0 117.8629 113.9815
  A 3.69 3.42 -34.5 0 0 116.7590 118.8900
  A 3.69 3.42 -34.5 0 0 121.7371 119.6185
  A 3.69 3.42 -34.5 0 0 122.8410 114.7100"
/>
<path stroke="#865a06" vector-effect="non-scaling-stroke" d="
  M 388.6068 125.6202
  A 3.57 3.34 48.9 0 0 388.7769 120.7344
  A 3.57 3.34 48.9 0 0 383.9132 120.2398
  A 3.57 3.34 48.9 0 0 383.7431 125.1256
  A 3.57 3.34 48.9 0 0 388.6068 125.6202"
/>
<path stroke="#865a06" vector-effect="non-scaling-stroke" d="
  M 106.0878 132.4953
  A 3.53 3.34 120.7 0 0 110.7619 131.1652
  A 3.53 3.34 120.7 0 0 109.6922 126.4247
  A 3.53 3.34 120.7 0 0 105.0181 127.7548
  A 3.53 3.34 120.7 0 0 106.0878 132.4953"
/>
<path stroke="#865a06" vector-effect="non-scaling-stroke" d="
  M 401.01 136.03
  A 3.57 3.57 0.0 0 0 397.44 132.46
  A 3.57 3.57 0.0 0 0 393.87 136.03
  A 3.57 3.57 0.0 0 0 397.44 139.60
  A 3.57 3.57 0.0 0 0 401.01 136.03"
/>
<path stroke="#865a06" vector-effect="non-scaling-stroke" d="
  M 95.6288 146.5402
  A 3.61 3.38 115.8 0 0 100.2431 144.7611
  A 3.61 3.38 115.8 0 0 98.7712 140.0398
  A 3.61 3.38 115.8 0 0 94.1569 141.8189
  A 3.61 3.38 115.8 0 0 95.6288 146.5402"
/>
<path stroke="#865a06" vector-effect="non-scaling-stroke" d="
  M 408.8928 153.7571
  A 3.62 3.38 67.2 0 0 410.6059 149.1102
  A 3.62 3.38 67.2 0 0 406.0872 147.0829
  A 3.62 3.38 67.2 0 0 404.3741 151.7298
  A 3.62 3.38 67.2 0 0 408.8928 153.7571"
/>
<path stroke="#865a06" vector-effect="non-scaling-stroke" d="
  M 85.6881 161.0911
  A 3.70 3.49 127.1 0 0 90.7036 160.2452
  A 3.70 3.49 127.1 0 0 90.1519 155.1889
  A 3.70 3.49 127.1 0 0 85.1364 156.0348
  A 3.70 3.49 127.1 0 0 85.6881 161.0911"
/>
<path stroke="#865a06" vector-effect="non-scaling-stroke" d="
  M 419.65 165.71
  A 3.47 3.47 0.0 0 0 416.18 162.24
  A 3.47 3.47 0.0 0 0 412.71 165.71
  A 3.47 3.47 0.0 0 0 416.18 169.18
  A 3.47 3.47 0.0 0 0 419.65 165.71"
/>
<path stroke="#865a06" vector-effect="non-scaling-stroke" d="
  M 78.5390 177.0434
  A 3.65 3.48 114.8 0 0 83.2291 175.1897
  A 3.65 3.48 114.8 0 0 81.6010 170.4166
  A 3.65 3.48 114.8 0 0 76.9109 172.2703
  A 3.65 3.48 114.8 0 0 78.5390 177.0434"
/>
<path stroke="#865a06" vector-effect="non-scaling-stroke" d="
  M 426.72 181.63
  A 3.47 3.47 0.0 0 0 423.25 178.16
  A 3.47 3.47 0.0 0 0 419.78 181.63
  A 3.47 3.47 0.0 0 0 423.25 185.10
  A 3.47 3.47 0.0 0 0 426.72 181.63"
/>
<path stroke="#865a06" vector-effect="non-scaling-stroke" d="
  M 72.9097 193.5849
  A 3.63 3.35 100.0 0 0 76.8391 190.5917
  A 3.63 3.35 100.0 0 0 74.1703 186.4351
  A 3.63 3.35 100.0 0 0 70.2409 189.4283
  A 3.63 3.35 100.0 0 0 72.9097 193.5849"
/>
<path stroke="#865a06" vector-effect="non-scaling-stroke" d="
  M 432.53 198.03
  A 3.58 3.58 0.0 0 0 428.95 194.45
  A 3.58 3.58 0.0 0 0 425.37 198.03
  A 3.58 3.58 0.0 0 0 428.95 201.61
  A 3.58 3.58 0.0 0 0 432.53 198.03"
/>
<path stroke="#865a06" vector-effect="non-scaling-stroke" d="
  M 68.2339 210.3049
  A 3.70 3.41 99.9 0 0 72.2292 207.2463
  A 3.70 3.41 99.9 0 0 69.5061 203.0151
  A 3.70 3.41 99.9 0 0 65.5108 206.0737
  A 3.70 3.41 99.9 0 0 68.2339 210.3049"
/>
<path stroke="#865a06" vector-effect="non-scaling-stroke" d="
  M 433.9517 218.5281
  A 3.61 3.37 75.7 0 0 436.3256 214.1976
  A 3.61 3.37 75.7 0 0 432.1683 211.5319
  A 3.61 3.37 75.7 0 0 429.7944 215.8624
  A 3.61 3.37 75.7 0 0 433.9517 218.5281"
/>
<path stroke="#865a06" vector-effect="non-scaling-stroke" d="
  M 64.4428 227.3467
  A 3.61 3.40 106.2 0 0 68.7150 224.8286
  A 3.61 3.40 106.2 0 0 66.4572 220.4133
  A 3.61 3.40 106.2 0 0 62.1850 222.9314
  A 3.61 3.40 106.2 0 0 64.4428 227.3467"
/>
<path stroke="#865a06" vector-effect="non-scaling-stroke" d="
  M 439.08 232.24
  A 3.49 3.49 0.0 0 0 435.59 228.75
  A 3.49 3.49 0.0 0 0 432.10 232.24
  A 3.49 3.49 0.0 0 0 435.59 235.73
  A 3.49 3.49 0.0 0 0 439.08 232.24"
/>
<path stroke="#a87c81" vector-effect="non-scaling-stroke" d="
  M 424.40 235.24
  Q 424.35 234.13 423.23 234.13
  L 76.20 234.10
  A 0.28 0.28 0.0 0 0 75.92 234.35
  Q 72.94 266.16 81.36 295.99
  Q 82.76 300.95 84.10 305.68
  A 1.18 1.17 -7.8 0 0 85.23 306.53
  L 414.48 306.52
  A 1.59 1.57 7.7 0 0 416.01 305.37
  Q 417.52 300.05 419.16 294.11
  Q 424.32 275.45 424.72 256.34
  Q 424.93 245.93 424.40 235.24"
/>
<path stroke="#865a06" vector-effect="non-scaling-stroke" d="
  M 67.32 241.25
  A 3.51 3.51 0.0 0 0 63.81 237.74
  A 3.51 3.51 0.0 0 0 60.30 241.25
  A 3.51 3.51 0.0 0 0 63.81 244.76
  A 3.51 3.51 0.0 0 0 67.32 241.25"
/>
<path stroke="#865a06" vector-effect="non-scaling-stroke" d="
  M 439.82 249.88
  A 3.59 3.59 0.0 0 0 436.23 246.29
  A 3.59 3.59 0.0 0 0 432.64 249.88
  A 3.59 3.59 0.0 0 0 436.23 253.47
  A 3.59 3.59 0.0 0 0 439.82 249.88"
/>
<path stroke="#865a06" vector-effect="non-scaling-stroke" d="
  M 67.44 258.80
  A 3.50 3.50 0.0 0 0 63.94 255.30
  A 3.50 3.50 0.0 0 0 60.44 258.80
  A 3.50 3.50 0.0 0 0 63.94 262.30
  A 3.50 3.50 0.0 0 0 67.44 258.80"
/>
<path stroke="#865a06" vector-effect="non-scaling-stroke" d="
  M 435.1588 271.3236
  A 3.56 3.42 95.5 0 0 438.9043 268.1078
  A 3.56 3.42 95.5 0 0 435.8412 264.2364
  A 3.56 3.42 95.5 0 0 432.0957 267.4522
  A 3.56 3.42 95.5 0 0 435.1588 271.3236"
/>
<path stroke="#865a06" vector-effect="non-scaling-stroke" d="
  M 66.4152 279.6517
  A 3.62 3.39 74.7 0 0 68.7298 275.2655
  A 3.62 3.39 74.7 0 0 64.5048 272.6683
  A 3.62 3.39 74.7 0 0 62.1902 277.0545
  A 3.62 3.39 74.7 0 0 66.4152 279.6517"
/>
<path stroke="#865a06" vector-effect="non-scaling-stroke" d="
  M 432.3709 288.5315
  A 3.63 3.40 100.3 0 0 436.3652 285.5679
  A 3.63 3.40 100.3 0 0 433.6691 281.3885
  A 3.63 3.40 100.3 0 0 429.6748 284.3521
  A 3.63 3.40 100.3 0 0 432.3709 288.5315"
/>
<path stroke="#865a06" vector-effect="non-scaling-stroke" d="
  M 69.2913 296.9570
  A 3.69 3.41 83.6 0 0 72.2687 292.9099
  A 3.69 3.41 83.6 0 0 68.4687 289.6230
  A 3.69 3.41 83.6 0 0 65.4913 293.6701
  A 3.69 3.41 83.6 0 0 69.2913 296.9570"
/>
<path stroke="#865a06" vector-effect="non-scaling-stroke" d="
  M 432.3064 301.4360
  A 3.12 3.12 0.0 0 0 429.3028 298.2038
  L 428.6832 298.1811
  A 3.12 3.12 0.0 0 0 425.4510 301.1847
  L 425.4136 302.2040
  A 3.12 3.12 0.0 0 0 428.4172 305.4362
  L 429.0368 305.4589
  A 3.12 3.12 0.0 0 0 432.2690 302.4553
  L 432.3064 301.4360"
/>
<path stroke="#865a06" vector-effect="non-scaling-stroke" d="
  M 74.0369 313.6518
  A 3.65 3.39 81.7 0 0 76.8645 309.5506
  A 3.65 3.39 81.7 0 0 72.9831 306.4282
  A 3.65 3.39 81.7 0 0 70.1555 310.5294
  A 3.65 3.39 81.7 0 0 74.0369 313.6518"
/>
<path stroke="#a87c81" vector-effect="non-scaling-stroke" d="
  M 318.65 410.83
  Q 325.31 408.03 330.47 405.32
  Q 380.62 378.97 406.64 327.93
  Q 409.34 322.63 412.37 314.85
  Q 412.51 314.48 412.44 314.11
  A 0.45 0.45 0.0 0 0 412.00 313.74
  L 88.48 313.73
  Q 87.23 313.73 87.68 314.90
  Q 93.18 329.07 101.02 341.56
  Q 131.23 389.75 182.88 411.52
  Q 189.64 414.38 197.37 416.77
  C 237.86 429.29 279.63 427.19 318.65 410.83"
/>
<path stroke="#865a06" vector-effect="non-scaling-stroke" d="
  M 421.7770 321.7172
  A 3.59 3.40 113.7 0 0 426.3333 319.7966
  A 3.59 3.40 113.7 0 0 424.6630 315.1428
  A 3.59 3.40 113.7 0 0 420.1067 317.0634
  A 3.59 3.40 113.7 0 0 421.7770 321.7172"
/>
<path stroke="#865a06" vector-effect="non-scaling-stroke" d="
  M 83.55 326.27
  A 3.56 3.56 0.0 0 0 79.99 322.71
  A 3.56 3.56 0.0 0 0 76.43 326.27
  A 3.56 3.56 0.0 0 0 79.99 329.83
  A 3.56 3.56 0.0 0 0 83.55 326.27"
/>
<path stroke="#865a06" vector-effect="non-scaling-stroke" d="
  M 414.3319 337.3858
  A 3.53 3.37 121.0 0 0 419.0387 336.0957
  A 3.53 3.37 121.0 0 0 417.9681 331.3342
  A 3.53 3.37 121.0 0 0 413.2613 332.6243
  A 3.53 3.37 121.0 0 0 414.3319 337.3858"
/>
<path stroke="#865a06" vector-effect="non-scaling-stroke" d="
  M 89.5210 345.1798
  A 3.66 3.51 65.1 0 0 91.1637 340.3822
  A 3.66 3.51 65.1 0 0 86.4390 338.5402
  A 3.66 3.51 65.1 0 0 84.7963 343.3378
  A 3.66 3.51 65.1 0 0 89.5210 345.1798"
/>
<path stroke="#865a06" vector-effect="non-scaling-stroke" d="
  M 411.01 349.62
  A 3.53 3.53 0.0 0 0 407.48 346.09
  A 3.53 3.53 0.0 0 0 403.95 349.62
  A 3.53 3.53 0.0 0 0 407.48 353.15
  A 3.53 3.53 0.0 0 0 411.01 349.62"
/>
<path stroke="#865a06" vector-effect="non-scaling-stroke" d="
  M 99.2460 359.5725
  A 3.60 3.39 54.0 0 0 99.8726 354.6674
  A 3.60 3.39 54.0 0 0 95.0140 353.7475
  A 3.60 3.39 54.0 0 0 94.3874 358.6526
  A 3.60 3.39 54.0 0 0 99.2460 359.5725"
/>
<path stroke="#865a06" vector-effect="non-scaling-stroke" d="
  M 400.4026 361.8640
  A 3.62 3.48 -34.8 0 0 395.4439 361.0724
  A 3.62 3.48 -34.8 0 0 394.4574 365.9960
  A 3.62 3.48 -34.8 0 0 399.4161 366.7876
  A 3.62 3.48 -34.8 0 0 400.4026 361.8640"
/>
<path stroke="#865a06" vector-effect="non-scaling-stroke" d="
  M 110.3228 373.0987
  A 3.51 3.32 46.8 0 0 110.3402 368.2673
  A 3.51 3.32 46.8 0 0 105.5172 367.9813
  A 3.51 3.32 46.8 0 0 105.4998 372.8127
  A 3.51 3.32 46.8 0 0 110.3228 373.0987"
/>
<path stroke="#865a06" vector-effect="non-scaling-stroke" d="
  M 384.1853 380.0627
  A 3.59 3.35 125.5 0 0 388.9973 379.0854
  A 3.59 3.35 125.5 0 0 388.3547 374.2173
  A 3.59 3.35 125.5 0 0 383.5427 375.1946
  A 3.59 3.35 125.5 0 0 384.1853 380.0627"
/>
<path stroke="#865a06" vector-effect="non-scaling-stroke" d="
  M 123.35 383.17
  A 3.53 3.53 0.0 0 0 119.82 379.64
  A 3.53 3.53 0.0 0 0 116.29 383.17
  A 3.53 3.53 0.0 0 0 119.82 386.70
  A 3.53 3.53 0.0 0 0 123.35 383.17"
/>
<path stroke="#865a06" vector-effect="non-scaling-stroke" d="
  M 377.17 389.27
  A 3.53 3.53 0.0 0 0 373.64 385.74
  A 3.53 3.53 0.0 0 0 370.11 389.27
  A 3.53 3.53 0.0 0 0 373.64 392.80
  A 3.53 3.53 0.0 0 0 377.17 389.27"
/>
<path stroke="#865a06" vector-effect="non-scaling-stroke" d="
  M 136.45 394.91
  A 3.50 3.50 0.0 0 0 132.95 391.41
  A 3.50 3.50 0.0 0 0 129.45 394.91
  A 3.50 3.50 0.0 0 0 132.95 398.41
  A 3.50 3.50 0.0 0 0 136.45 394.91"
/>
<path stroke="#865a06" vector-effect="non-scaling-stroke" d="
  M 363.39 400.35
  A 3.37 3.37 0.0 0 0 360.02 396.98
  A 3.37 3.37 0.0 0 0 356.65 400.35
  A 3.37 3.37 0.0 0 0 360.02 403.72
  A 3.37 3.37 0.0 0 0 363.39 400.35"
/>
<path stroke="#865a06" vector-effect="non-scaling-stroke" d="
  M 149.6030 407.5282
  A 3.61 3.45 42.7 0 0 149.2897 402.5445
  A 3.61 3.45 42.7 0 0 144.2970 402.6318
  A 3.61 3.45 42.7 0 0 144.6103 407.6155
  A 3.61 3.45 42.7 0 0 149.6030 407.5282"
/>
<path stroke="#865a06" vector-effect="non-scaling-stroke" d="
  M 348.7304 408.5778
  A 3.55 3.30 -24.5 0 0 344.1315 407.0471
  A 3.55 3.30 -24.5 0 0 342.2696 411.5222
  A 3.55 3.30 -24.5 0 0 346.8685 413.0529
  A 3.55 3.30 -24.5 0 0 348.7304 408.5778"
/>
<path stroke="#865a06" vector-effect="non-scaling-stroke" d="
  M 165.3366 414.9514
  A 3.56 3.36 14.5 0 0 162.7313 410.8070
  A 3.56 3.36 14.5 0 0 158.4434 413.1686
  A 3.56 3.36 14.5 0 0 161.0487 417.3130
  A 3.56 3.36 14.5 0 0 165.3366 414.9514"
/>
<path stroke="#865a06" vector-effect="non-scaling-stroke" d="
  M 333.6462 417.0875
  A 3.59 3.32 -19.4 0 0 329.1572 415.1485
  A 3.59 3.32 -19.4 0 0 326.8738 419.4725
  A 3.59 3.32 -19.4 0 0 331.3628 421.4115
  A 3.59 3.32 -19.4 0 0 333.6462 417.0875"
/>
<path stroke="#865a06" vector-effect="non-scaling-stroke" d="
  M 180.8824 423.0140
  A 3.61 3.39 22.2 0 0 178.8209 418.5113
  A 3.61 3.39 22.2 0 0 174.1976 420.2860
  A 3.61 3.39 22.2 0 0 176.2591 424.7887
  A 3.61 3.39 22.2 0 0 180.8824 423.0140"
/>
<path stroke="#865a06" vector-effect="non-scaling-stroke" d="
  M 317.2337 423.2560
  A 3.57 3.34 -27.6 0 0 312.5226 421.9501
  A 3.57 3.34 -27.6 0 0 310.9063 426.5640
  A 3.57 3.34 -27.6 0 0 315.6174 427.8699
  A 3.57 3.34 -27.6 0 0 317.2337 423.2560"
/>
<path stroke="#865a06" vector-effect="non-scaling-stroke" d="
  M 197.3189 429.2858
  A 3.59 3.42 24.8 0 0 195.4945 424.6754
  A 3.59 3.42 24.8 0 0 190.8011 426.2742
  A 3.59 3.42 24.8 0 0 192.6255 430.8846
  A 3.59 3.42 24.8 0 0 197.3189 429.2858"
/>
<path stroke="#865a06" vector-effect="non-scaling-stroke" d="
  M 300.8608 429.4962
  A 3.51 3.32 -11.4 0 0 296.7638 426.9355
  A 3.51 3.32 -11.4 0 0 293.9792 430.8838
  A 3.51 3.32 -11.4 0 0 298.0762 433.4445
  A 3.51 3.32 -11.4 0 0 300.8608 429.4962"
/>
<path stroke="#865a06" vector-effect="non-scaling-stroke" d="
  M 214.36 432.15
  A 3.44 3.44 0.0 0 0 210.92 428.71
  A 3.44 3.44 0.0 0 0 207.48 432.15
  A 3.44 3.44 0.0 0 0 210.92 435.59
  A 3.44 3.44 0.0 0 0 214.36 432.15"
/>
<path stroke="#865a06" vector-effect="non-scaling-stroke" d="
  M 283.69 433.90
  A 3.42 3.42 0.0 0 0 280.27 430.48
  A 3.42 3.42 0.0 0 0 276.85 433.90
  A 3.42 3.42 0.0 0 0 280.27 437.32
  A 3.42 3.42 0.0 0 0 283.69 433.90"
/>
<path stroke="#865a06" vector-effect="non-scaling-stroke" d="
  M 231.8156 435.5177
  A 3.58 3.37 6.7 0 0 228.6532 431.7530
  A 3.58 3.37 6.7 0 0 224.7044 434.6823
  A 3.58 3.37 6.7 0 0 227.8668 438.4470
  A 3.58 3.37 6.7 0 0 231.8156 435.5177"
/>
<path stroke="#865a06" vector-effect="non-scaling-stroke" d="
  M 266.51 435.82
  A 3.52 3.52 0.0 0 0 262.99 432.30
  A 3.52 3.52 0.0 0 0 259.47 435.82
  A 3.52 3.52 0.0 0 0 262.99 439.34
  A 3.52 3.52 0.0 0 0 266.51 435.82"
/>
<path stroke="#865a06" vector-effect="non-scaling-stroke" d="
  M 249.14 436.26
  A 3.50 3.50 0.0 0 0 245.64 432.76
  A 3.50 3.50 0.0 0 0 242.14 436.26
  A 3.50 3.50 0.0 0 0 245.64 439.76
  A 3.50 3.50 0.0 0 0 249.14 436.26"
/>
<path stroke="#a87c81" vector-effect="non-scaling-stroke" d="
  M 232.01 190.84
  L 224.04 190.88
  A 0.03 0.03 0.0 0 0 224.04 190.94
  L 232.03 191.78"
/>
<path stroke="#a87c81" vector-effect="non-scaling-stroke" d="
  M 213.25 126.16
  Q 223.33 125.61 233.34 124.51
  Q 233.40 124.51 233.42 124.45
  Q 233.44 124.40 233.39 124.38
  Q 233.34 124.36 233.30 124.36
  Q 223.76 124.98 214.21 125.32"
/>
<path stroke="#a87c81" vector-effect="non-scaling-stroke" d="
  M 199.80 297.81
  Q 199.59 298.13 199.62 298.32
  Q 199.65 298.49 199.98 298.54
  Q 202.29 298.91 204.51 298.35"
/>
<path stroke="#303285" vector-effect="non-scaling-stroke" d="
  M 201.37 379.50
  Q 201.95 377.99 204.06 377.93"
/>
</g>
<path fill="#5254ff" d="
  M 460.07 249.96
  A 210.11 210.11 0.0 0 1 249.96 460.07
  A 210.11 210.11 0.0 0 1 39.85 249.96
  A 210.11 210.11 0.0 0 1 249.96 39.85
  A 210.11 210.11 0.0 0 1 460.07 249.96
  Z
  M 445.48 250.00
  A 195.49 195.49 0.0 0 0 249.99 54.51
  A 195.49 195.49 0.0 0 0 54.50 250.00
  A 195.49 195.49 0.0 0 0 249.99 445.49
  A 195.49 195.49 0.0 0 0 445.48 250.00
  Z"
/>
<path fill="#fea402" d="
  M 445.48 250.00
  A 195.49 195.49 0.0 0 1 249.99 445.49
  A 195.49 195.49 0.0 0 1 54.50 250.00
  A 195.49 195.49 0.0 0 1 249.99 54.51
  A 195.49 195.49 0.0 0 1 445.48 250.00
  Z
  M 249.23 63.73
  A 3.62 3.62 0.0 0 0 245.61 60.11
  A 3.62 3.62 0.0 0 0 241.99 63.73
  A 3.62 3.62 0.0 0 0 245.61 67.35
  A 3.62 3.62 0.0 0 0 249.23 63.73
  Z
  M 266.43 64.18
  A 3.55 3.55 0.0 0 0 262.88 60.63
  A 3.55 3.55 0.0 0 0 259.33 64.18
  A 3.55 3.55 0.0 0 0 262.88 67.73
  A 3.55 3.55 0.0 0 0 266.43 64.18
  Z
  M 231.7160 64.1070
  A 3.60 3.40 -12.4 0 0 227.4699 61.5593
  A 3.60 3.40 -12.4 0 0 224.6840 65.6530
  A 3.60 3.40 -12.4 0 0 228.9301 68.2007
  A 3.60 3.40 -12.4 0 0 231.7160 64.1070
  Z
  M 283.7350 66.7655
  A 3.54 3.32 11.0 0 0 280.8935 62.8310
  A 3.54 3.32 11.0 0 0 276.7850 65.4145
  A 3.54 3.32 11.0 0 0 279.6265 69.3490
  A 3.54 3.32 11.0 0 0 283.7350 66.7655
  Z
  M 214.32 67.83
  A 3.43 3.43 0.0 0 0 210.89 64.40
  A 3.43 3.43 0.0 0 0 207.46 67.83
  A 3.43 3.43 0.0 0 0 210.89 71.26
  A 3.43 3.43 0.0 0 0 214.32 67.83
  Z
  M 300.9503 70.1337
  A 3.60 3.34 4.2 0 0 297.6046 66.5390
  A 3.60 3.34 4.2 0 0 293.7697 69.6063
  A 3.60 3.34 4.2 0 0 297.1154 73.2010
  A 3.60 3.34 4.2 0 0 300.9503 70.1337
  Z
  M 197.3029 70.6745
  A 3.61 3.41 -25.7 0 0 192.5712 69.1673
  A 3.61 3.41 -25.7 0 0 190.7971 73.8055
  A 3.61 3.41 -25.7 0 0 195.5288 75.3127
  A 3.61 3.41 -25.7 0 0 197.3029 70.6745
  Z
  M 317.4450 76.2255
  A 3.58 3.35 19.0 0 0 315.1507 71.8925
  A 3.58 3.35 19.0 0 0 310.6750 73.8945
  A 3.58 3.35 19.0 0 0 312.9693 78.2275
  A 3.58 3.35 19.0 0 0 317.4450 76.2255
  Z
  M 180.8436 76.8843
  A 3.60 3.39 -24.2 0 0 176.1704 75.2679
  A 3.60 3.39 -24.2 0 0 174.2764 79.8357
  A 3.60 3.39 -24.2 0 0 178.9496 81.4521
  A 3.60 3.39 -24.2 0 0 180.8436 76.8843
  Z
  M 266.89 75.86
  C 249.80 74.63 231.78 74.83 214.75 78.66
  Q 199.83 82.02 188.13 86.44
  C 165.61 94.95 144.87 108.09 127.71 124.97
  Q 85.95 166.02 76.67 225.96
  Q 76.52 226.87 77.45 226.87
  L 422.25 226.83
  Q 423.49 226.83 423.30 225.60
  Q 417.25 186.35 396.55 154.57
  Q 390.79 145.73 384.60 138.37
  Q 342.11 87.91 275.60 76.87
  Q 271.46 76.18 266.89 75.86
  Z
  M 333.6877 82.6492
  A 3.59 3.37 15.0 0 0 331.0922 78.4648
  A 3.59 3.37 15.0 0 0 326.7523 80.7908
  A 3.59 3.37 15.0 0 0 329.3478 84.9752
  A 3.59 3.37 15.0 0 0 333.6877 82.6492
  Z
  M 165.25 85.89
  A 3.43 3.43 0.0 0 0 161.82 82.46
  A 3.43 3.43 0.0 0 0 158.39 85.89
  A 3.43 3.43 0.0 0 0 161.82 89.32
  A 3.43 3.43 0.0 0 0 165.25 85.89
  Z
  M 348.2558 92.2707
  A 3.54 3.33 39.9 0 0 347.6760 87.4453
  A 3.54 3.33 39.9 0 0 342.8242 87.7293
  A 3.54 3.33 39.9 0 0 343.4040 92.5547
  A 3.54 3.33 39.9 0 0 348.2558 92.2707
  Z
  M 144.6917 97.6261
  A 3.57 3.43 127.4 0 0 149.5848 96.8733
  A 3.57 3.43 127.4 0 0 149.0283 91.9539
  A 3.57 3.43 127.4 0 0 144.1352 92.7067
  A 3.57 3.43 127.4 0 0 144.6917 97.6261
  Z
  M 363.45 99.68
  A 3.45 3.45 0.0 0 0 360.00 96.23
  A 3.45 3.45 0.0 0 0 356.55 99.68
  A 3.45 3.45 0.0 0 0 360.00 103.13
  A 3.45 3.45 0.0 0 0 363.45 99.68
  Z
  M 135.8244 102.9226
  A 3.61 3.40 -36.7 0 0 130.8981 102.3540
  A 3.61 3.40 -36.7 0 0 130.0356 107.2374
  A 3.61 3.40 -36.7 0 0 134.9619 107.8060
  A 3.61 3.40 -36.7 0 0 135.8244 102.9226
  Z
  M 376.2425 113.3535
  A 3.66 3.47 44.9 0 0 376.0994 108.3121
  A 3.66 3.47 44.9 0 0 371.0575 108.1865
  A 3.66 3.47 44.9 0 0 371.2006 113.2279
  A 3.66 3.47 44.9 0 0 376.2425 113.3535
  Z
  M 122.8410 114.7100
  A 3.69 3.42 -34.5 0 0 117.8629 113.9815
  A 3.69 3.42 -34.5 0 0 116.7590 118.8900
  A 3.69 3.42 -34.5 0 0 121.7371 119.6185
  A 3.69 3.42 -34.5 0 0 122.8410 114.7100
  Z
  M 388.6068 125.6202
  A 3.57 3.34 48.9 0 0 388.7769 120.7344
  A 3.57 3.34 48.9 0 0 383.9132 120.2398
  A 3.57 3.34 48.9 0 0 383.7431 125.1256
  A 3.57 3.34 48.9 0 0 388.6068 125.6202
  Z
  M 106.0878 132.4953
  A 3.53 3.34 120.7 0 0 110.7619 131.1652
  A 3.53 3.34 120.7 0 0 109.6922 126.4247
  A 3.53 3.34 120.7 0 0 105.0181 127.7548
  A 3.53 3.34 120.7 0 0 106.0878 132.4953
  Z
  M 401.01 136.03
  A 3.57 3.57 0.0 0 0 397.44 132.46
  A 3.57 3.57 0.0 0 0 393.87 136.03
  A 3.57 3.57 0.0 0 0 397.44 139.60
  A 3.57 3.57 0.0 0 0 401.01 136.03
  Z
  M 95.6288 146.5402
  A 3.61 3.38 115.8 0 0 100.2431 144.7611
  A 3.61 3.38 115.8 0 0 98.7712 140.0398
  A 3.61 3.38 115.8 0 0 94.1569 141.8189
  A 3.61 3.38 115.8 0 0 95.6288 146.5402
  Z
  M 408.8928 153.7571
  A 3.62 3.38 67.2 0 0 410.6059 149.1102
  A 3.62 3.38 67.2 0 0 406.0872 147.0829
  A 3.62 3.38 67.2 0 0 404.3741 151.7298
  A 3.62 3.38 67.2 0 0 408.8928 153.7571
  Z
  M 85.6881 161.0911
  A 3.70 3.49 127.1 0 0 90.7036 160.2452
  A 3.70 3.49 127.1 0 0 90.1519 155.1889
  A 3.70 3.49 127.1 0 0 85.1364 156.0348
  A 3.70 3.49 127.1 0 0 85.6881 161.0911
  Z
  M 419.65 165.71
  A 3.47 3.47 0.0 0 0 416.18 162.24
  A 3.47 3.47 0.0 0 0 412.71 165.71
  A 3.47 3.47 0.0 0 0 416.18 169.18
  A 3.47 3.47 0.0 0 0 419.65 165.71
  Z
  M 78.5390 177.0434
  A 3.65 3.48 114.8 0 0 83.2291 175.1897
  A 3.65 3.48 114.8 0 0 81.6010 170.4166
  A 3.65 3.48 114.8 0 0 76.9109 172.2703
  A 3.65 3.48 114.8 0 0 78.5390 177.0434
  Z
  M 426.72 181.63
  A 3.47 3.47 0.0 0 0 423.25 178.16
  A 3.47 3.47 0.0 0 0 419.78 181.63
  A 3.47 3.47 0.0 0 0 423.25 185.10
  A 3.47 3.47 0.0 0 0 426.72 181.63
  Z
  M 72.9097 193.5849
  A 3.63 3.35 100.0 0 0 76.8391 190.5917
  A 3.63 3.35 100.0 0 0 74.1703 186.4351
  A 3.63 3.35 100.0 0 0 70.2409 189.4283
  A 3.63 3.35 100.0 0 0 72.9097 193.5849
  Z
  M 432.53 198.03
  A 3.58 3.58 0.0 0 0 428.95 194.45
  A 3.58 3.58 0.0 0 0 425.37 198.03
  A 3.58 3.58 0.0 0 0 428.95 201.61
  A 3.58 3.58 0.0 0 0 432.53 198.03
  Z
  M 68.2339 210.3049
  A 3.70 3.41 99.9 0 0 72.2292 207.2463
  A 3.70 3.41 99.9 0 0 69.5061 203.0151
  A 3.70 3.41 99.9 0 0 65.5108 206.0737
  A 3.70 3.41 99.9 0 0 68.2339 210.3049
  Z
  M 433.9517 218.5281
  A 3.61 3.37 75.7 0 0 436.3256 214.1976
  A 3.61 3.37 75.7 0 0 432.1683 211.5319
  A 3.61 3.37 75.7 0 0 429.7944 215.8624
  A 3.61 3.37 75.7 0 0 433.9517 218.5281
  Z
  M 64.4428 227.3467
  A 3.61 3.40 106.2 0 0 68.7150 224.8286
  A 3.61 3.40 106.2 0 0 66.4572 220.4133
  A 3.61 3.40 106.2 0 0 62.1850 222.9314
  A 3.61 3.40 106.2 0 0 64.4428 227.3467
  Z
  M 439.08 232.24
  A 3.49 3.49 0.0 0 0 435.59 228.75
  A 3.49 3.49 0.0 0 0 432.10 232.24
  A 3.49 3.49 0.0 0 0 435.59 235.73
  A 3.49 3.49 0.0 0 0 439.08 232.24
  Z
  M 424.40 235.24
  Q 424.35 234.13 423.23 234.13
  L 76.20 234.10
  A 0.28 0.28 0.0 0 0 75.92 234.35
  Q 72.94 266.16 81.36 295.99
  Q 82.76 300.95 84.10 305.68
  A 1.18 1.17 -7.8 0 0 85.23 306.53
  L 414.48 306.52
  A 1.59 1.57 7.7 0 0 416.01 305.37
  Q 417.52 300.05 419.16 294.11
  Q 424.32 275.45 424.72 256.34
  Q 424.93 245.93 424.40 235.24
  Z
  M 67.32 241.25
  A 3.51 3.51 0.0 0 0 63.81 237.74
  A 3.51 3.51 0.0 0 0 60.30 241.25
  A 3.51 3.51 0.0 0 0 63.81 244.76
  A 3.51 3.51 0.0 0 0 67.32 241.25
  Z
  M 439.82 249.88
  A 3.59 3.59 0.0 0 0 436.23 246.29
  A 3.59 3.59 0.0 0 0 432.64 249.88
  A 3.59 3.59 0.0 0 0 436.23 253.47
  A 3.59 3.59 0.0 0 0 439.82 249.88
  Z
  M 67.44 258.80
  A 3.50 3.50 0.0 0 0 63.94 255.30
  A 3.50 3.50 0.0 0 0 60.44 258.80
  A 3.50 3.50 0.0 0 0 63.94 262.30
  A 3.50 3.50 0.0 0 0 67.44 258.80
  Z
  M 435.1588 271.3236
  A 3.56 3.42 95.5 0 0 438.9043 268.1078
  A 3.56 3.42 95.5 0 0 435.8412 264.2364
  A 3.56 3.42 95.5 0 0 432.0957 267.4522
  A 3.56 3.42 95.5 0 0 435.1588 271.3236
  Z
  M 66.4152 279.6517
  A 3.62 3.39 74.7 0 0 68.7298 275.2655
  A 3.62 3.39 74.7 0 0 64.5048 272.6683
  A 3.62 3.39 74.7 0 0 62.1902 277.0545
  A 3.62 3.39 74.7 0 0 66.4152 279.6517
  Z
  M 432.3709 288.5315
  A 3.63 3.40 100.3 0 0 436.3652 285.5679
  A 3.63 3.40 100.3 0 0 433.6691 281.3885
  A 3.63 3.40 100.3 0 0 429.6748 284.3521
  A 3.63 3.40 100.3 0 0 432.3709 288.5315
  Z
  M 69.2913 296.9570
  A 3.69 3.41 83.6 0 0 72.2687 292.9099
  A 3.69 3.41 83.6 0 0 68.4687 289.6230
  A 3.69 3.41 83.6 0 0 65.4913 293.6701
  A 3.69 3.41 83.6 0 0 69.2913 296.9570
  Z
  M 432.3064 301.4360
  A 3.12 3.12 0.0 0 0 429.3028 298.2038
  L 428.6832 298.1811
  A 3.12 3.12 0.0 0 0 425.4510 301.1847
  L 425.4136 302.2040
  A 3.12 3.12 0.0 0 0 428.4172 305.4362
  L 429.0368 305.4589
  A 3.12 3.12 0.0 0 0 432.2690 302.4553
  L 432.3064 301.4360
  Z
  M 74.0369 313.6518
  A 3.65 3.39 81.7 0 0 76.8645 309.5506
  A 3.65 3.39 81.7 0 0 72.9831 306.4282
  A 3.65 3.39 81.7 0 0 70.1555 310.5294
  A 3.65 3.39 81.7 0 0 74.0369 313.6518
  Z
  M 318.65 410.83
  Q 325.31 408.03 330.47 405.32
  Q 380.62 378.97 406.64 327.93
  Q 409.34 322.63 412.37 314.85
  Q 412.51 314.48 412.44 314.11
  A 0.45 0.45 0.0 0 0 412.00 313.74
  L 88.48 313.73
  Q 87.23 313.73 87.68 314.90
  Q 93.18 329.07 101.02 341.56
  Q 131.23 389.75 182.88 411.52
  Q 189.64 414.38 197.37 416.77
  C 237.86 429.29 279.63 427.19 318.65 410.83
  Z
  M 421.7770 321.7172
  A 3.59 3.40 113.7 0 0 426.3333 319.7966
  A 3.59 3.40 113.7 0 0 424.6630 315.1428
  A 3.59 3.40 113.7 0 0 420.1067 317.0634
  A 3.59 3.40 113.7 0 0 421.7770 321.7172
  Z
  M 83.55 326.27
  A 3.56 3.56 0.0 0 0 79.99 322.71
  A 3.56 3.56 0.0 0 0 76.43 326.27
  A 3.56 3.56 0.0 0 0 79.99 329.83
  A 3.56 3.56 0.0 0 0 83.55 326.27
  Z
  M 414.3319 337.3858
  A 3.53 3.37 121.0 0 0 419.0387 336.0957
  A 3.53 3.37 121.0 0 0 417.9681 331.3342
  A 3.53 3.37 121.0 0 0 413.2613 332.6243
  A 3.53 3.37 121.0 0 0 414.3319 337.3858
  Z
  M 89.5210 345.1798
  A 3.66 3.51 65.1 0 0 91.1637 340.3822
  A 3.66 3.51 65.1 0 0 86.4390 338.5402
  A 3.66 3.51 65.1 0 0 84.7963 343.3378
  A 3.66 3.51 65.1 0 0 89.5210 345.1798
  Z
  M 411.01 349.62
  A 3.53 3.53 0.0 0 0 407.48 346.09
  A 3.53 3.53 0.0 0 0 403.95 349.62
  A 3.53 3.53 0.0 0 0 407.48 353.15
  A 3.53 3.53 0.0 0 0 411.01 349.62
  Z
  M 99.2460 359.5725
  A 3.60 3.39 54.0 0 0 99.8726 354.6674
  A 3.60 3.39 54.0 0 0 95.0140 353.7475
  A 3.60 3.39 54.0 0 0 94.3874 358.6526
  A 3.60 3.39 54.0 0 0 99.2460 359.5725
  Z
  M 400.4026 361.8640
  A 3.62 3.48 -34.8 0 0 395.4439 361.0724
  A 3.62 3.48 -34.8 0 0 394.4574 365.9960
  A 3.62 3.48 -34.8 0 0 399.4161 366.7876
  A 3.62 3.48 -34.8 0 0 400.4026 361.8640
  Z
  M 110.3228 373.0987
  A 3.51 3.32 46.8 0 0 110.3402 368.2673
  A 3.51 3.32 46.8 0 0 105.5172 367.9813
  A 3.51 3.32 46.8 0 0 105.4998 372.8127
  A 3.51 3.32 46.8 0 0 110.3228 373.0987
  Z
  M 384.1853 380.0627
  A 3.59 3.35 125.5 0 0 388.9973 379.0854
  A 3.59 3.35 125.5 0 0 388.3547 374.2173
  A 3.59 3.35 125.5 0 0 383.5427 375.1946
  A 3.59 3.35 125.5 0 0 384.1853 380.0627
  Z
  M 123.35 383.17
  A 3.53 3.53 0.0 0 0 119.82 379.64
  A 3.53 3.53 0.0 0 0 116.29 383.17
  A 3.53 3.53 0.0 0 0 119.82 386.70
  A 3.53 3.53 0.0 0 0 123.35 383.17
  Z
  M 377.17 389.27
  A 3.53 3.53 0.0 0 0 373.64 385.74
  A 3.53 3.53 0.0 0 0 370.11 389.27
  A 3.53 3.53 0.0 0 0 373.64 392.80
  A 3.53 3.53 0.0 0 0 377.17 389.27
  Z
  M 136.45 394.91
  A 3.50 3.50 0.0 0 0 132.95 391.41
  A 3.50 3.50 0.0 0 0 129.45 394.91
  A 3.50 3.50 0.0 0 0 132.95 398.41
  A 3.50 3.50 0.0 0 0 136.45 394.91
  Z
  M 363.39 400.35
  A 3.37 3.37 0.0 0 0 360.02 396.98
  A 3.37 3.37 0.0 0 0 356.65 400.35
  A 3.37 3.37 0.0 0 0 360.02 403.72
  A 3.37 3.37 0.0 0 0 363.39 400.35
  Z
  M 149.6030 407.5282
  A 3.61 3.45 42.7 0 0 149.2897 402.5445
  A 3.61 3.45 42.7 0 0 144.2970 402.6318
  A 3.61 3.45 42.7 0 0 144.6103 407.6155
  A 3.61 3.45 42.7 0 0 149.6030 407.5282
  Z
  M 348.7304 408.5778
  A 3.55 3.30 -24.5 0 0 344.1315 407.0471
  A 3.55 3.30 -24.5 0 0 342.2696 411.5222
  A 3.55 3.30 -24.5 0 0 346.8685 413.0529
  A 3.55 3.30 -24.5 0 0 348.7304 408.5778
  Z
  M 165.3366 414.9514
  A 3.56 3.36 14.5 0 0 162.7313 410.8070
  A 3.56 3.36 14.5 0 0 158.4434 413.1686
  A 3.56 3.36 14.5 0 0 161.0487 417.3130
  A 3.56 3.36 14.5 0 0 165.3366 414.9514
  Z
  M 333.6462 417.0875
  A 3.59 3.32 -19.4 0 0 329.1572 415.1485
  A 3.59 3.32 -19.4 0 0 326.8738 419.4725
  A 3.59 3.32 -19.4 0 0 331.3628 421.4115
  A 3.59 3.32 -19.4 0 0 333.6462 417.0875
  Z
  M 180.8824 423.0140
  A 3.61 3.39 22.2 0 0 178.8209 418.5113
  A 3.61 3.39 22.2 0 0 174.1976 420.2860
  A 3.61 3.39 22.2 0 0 176.2591 424.7887
  A 3.61 3.39 22.2 0 0 180.8824 423.0140
  Z
  M 317.2337 423.2560
  A 3.57 3.34 -27.6 0 0 312.5226 421.9501
  A 3.57 3.34 -27.6 0 0 310.9063 426.5640
  A 3.57 3.34 -27.6 0 0 315.6174 427.8699
  A 3.57 3.34 -27.6 0 0 317.2337 423.2560
  Z
  M 197.3189 429.2858
  A 3.59 3.42 24.8 0 0 195.4945 424.6754
  A 3.59 3.42 24.8 0 0 190.8011 426.2742
  A 3.59 3.42 24.8 0 0 192.6255 430.8846
  A 3.59 3.42 24.8 0 0 197.3189 429.2858
  Z
  M 300.8608 429.4962
  A 3.51 3.32 -11.4 0 0 296.7638 426.9355
  A 3.51 3.32 -11.4 0 0 293.9792 430.8838
  A 3.51 3.32 -11.4 0 0 298.0762 433.4445
  A 3.51 3.32 -11.4 0 0 300.8608 429.4962
  Z
  M 214.36 432.15
  A 3.44 3.44 0.0 0 0 210.92 428.71
  A 3.44 3.44 0.0 0 0 207.48 432.15
  A 3.44 3.44 0.0 0 0 210.92 435.59
  A 3.44 3.44 0.0 0 0 214.36 432.15
  Z
  M 283.69 433.90
  A 3.42 3.42 0.0 0 0 280.27 430.48
  A 3.42 3.42 0.0 0 0 276.85 433.90
  A 3.42 3.42 0.0 0 0 280.27 437.32
  A 3.42 3.42 0.0 0 0 283.69 433.90
  Z
  M 231.8156 435.5177
  A 3.58 3.37 6.7 0 0 228.6532 431.7530
  A 3.58 3.37 6.7 0 0 224.7044 434.6823
  A 3.58 3.37 6.7 0 0 227.8668 438.4470
  A 3.58 3.37 6.7 0 0 231.8156 435.5177
  Z
  M 266.51 435.82
  A 3.52 3.52 0.0 0 0 262.99 432.30
  A 3.52 3.52 0.0 0 0 259.47 435.82
  A 3.52 3.52 0.0 0 0 262.99 439.34
  A 3.52 3.52 0.0 0 0 266.51 435.82
  Z
  M 249.14 436.26
  A 3.50 3.50 0.0 0 0 245.64 432.76
  A 3.50 3.50 0.0 0 0 242.14 436.26
  A 3.50 3.50 0.0 0 0 245.64 439.76
  A 3.50 3.50 0.0 0 0 249.14 436.26
  Z"
/>
<circle fill="#0e0f0a" cx="245.61" cy="63.73" r="3.62"/>
<circle fill="#0e0f0a" cx="262.88" cy="64.18" r="3.55"/>
<ellipse fill="#0e0f0a" cx="0.00" cy="0.00" transform="translate(228.20,64.88) rotate(-12.4)" rx="3.60" ry="3.40"/>
<ellipse fill="#0e0f0a" cx="0.00" cy="0.00" transform="translate(280.26,66.09) rotate(11.0)" rx="3.54" ry="3.32"/>
<circle fill="#0e0f0a" cx="210.89" cy="67.83" r="3.43"/>
<ellipse fill="#0e0f0a" cx="0.00" cy="0.00" transform="translate(297.36,69.87) rotate(4.2)" rx="3.60" ry="3.34"/>
<ellipse fill="#0e0f0a" cx="0.00" cy="0.00" transform="translate(194.05,72.24) rotate(-25.7)" rx="3.61" ry="3.41"/>
<ellipse fill="#0e0f0a" cx="0.00" cy="0.00" transform="translate(314.06,75.06) rotate(19.0)" rx="3.58" ry="3.35"/>
<ellipse fill="#0e0f0a" cx="0.00" cy="0.00" transform="translate(177.56,78.36) rotate(-24.2)" rx="3.60" ry="3.39"/>
<path fill="#5254ff" d="
  M 266.89 75.86
  Q 271.46 76.18 275.60 76.87
  Q 342.11 87.91 384.60 138.37
  Q 390.79 145.73 396.55 154.57
  Q 417.25 186.35 423.30 225.60
  Q 423.49 226.83 422.25 226.83
  L 77.45 226.87
  Q 76.52 226.87 76.67 225.96
  Q 85.95 166.02 127.71 124.97
  C 144.87 108.09 165.61 94.95 188.13 86.44
  Q 199.83 82.02 214.75 78.66
  C 231.78 74.83 249.80 74.63 266.89 75.86
  Z
  M 174.64 177.63
  Q 171.62 178.97 171.56 182.17
  Q 171.37 194.00 172.72 205.79
  Q 172.77 206.26 173.22 206.45
  Q 180.74 209.52 190.84 210.53
  Q 203.09 211.75 216.14 213.26
  C 217.78 213.45 219.24 214.09 220.88 214.23
  Q 228.55 214.88 235.73 215.03
  Q 238.16 215.08 240.74 214.04
  A 1.51 1.50 -46.9 0 1 241.75 214.00
  Q 246.92 215.64 251.95 212.83
  Q 252.48 212.53 252.61 213.12
  Q 253.12 215.45 255.59 216.43
  C 259.52 217.98 263.16 217.84 265.45 213.97
  Q 268.75 208.39 269.33 203.86
  Q 269.41 203.26 269.96 203.01
  L 289.07 194.35
  A 0.57 0.57 0.0 0 1 289.87 194.75
  Q 290.26 196.59 291.40 197.89
  Q 291.74 198.27 292.25 198.22
  Q 297.67 197.69 297.63 191.56
  Q 297.63 190.45 298.66 190.03
  L 303.73 188.00
  Q 305.08 187.45 304.82 186.03
  Q 304.70 185.39 304.93 184.83
  Q 305.11 184.40 305.57 184.26
  Q 310.28 182.86 314.82 181.24
  A 0.38 0.38 0.0 0 1 315.33 181.60
  L 315.29 186.46
  Q 315.29 187.14 315.96 187.06
  L 320.68 186.50
  Q 321.51 186.40 321.96 185.70
  Q 322.89 184.24 324.57 183.63
  Q 325.30 183.37 325.61 182.66
  Q 326.90 179.80 326.68 176.60
  A 0.83 0.81 -9.0 0 1 327.30 175.76
  L 327.71 175.65
  Q 328.24 175.52 328.24 174.98
  L 328.25 169.78
  Q 328.25 169.24 328.79 169.17
  Q 329.49 169.07 329.92 168.54
  Q 330.23 168.15 330.22 167.66
  L 329.10 113.28
  Q 329.08 112.48 328.32 112.21
  C 319.81 109.21 311.12 106.70 302.43 103.69
  Q 293.12 100.46 282.52 97.16
  Q 277.94 95.73 273.52 93.95
  Q 271.38 93.09 269.21 93.28
  Q 252.12 94.75 234.41 96.31
  C 226.52 97.00 218.49 98.47 210.66 100.15
  Q 205.47 101.26 201.39 104.57
  Q 200.96 104.91 200.42 104.98
  Q 195.52 105.58 190.34 106.43
  Q 185.73 107.19 183.78 111.62
  Q 181.90 115.88 180.19 119.85
  C 179.61 121.20 179.97 122.46 180.54 123.71
  Q 180.75 124.18 180.61 124.68
  Q 177.83 134.68 174.77 147.00
  Q 173.84 150.71 173.85 153.73
  Q 173.86 158.05 173.92 162.10
  Q 173.94 163.51 172.83 164.22
  A 1.02 1.02 0.0 0 0 172.35 165.03
  Q 172.09 169.32 172.38 173.30
  Q 172.53 175.43 174.63 176.32
  Q 176.16 176.96 174.64 177.63
  Z"
/>
<ellipse fill="#0e0f0a" cx="0.00" cy="0.00" transform="translate(330.22,81.72) rotate(15.0)" rx="3.59" ry="3.37"/>
<circle fill="#0e0f0a" cx="161.82" cy="85.89" r="3.43"/>
<ellipse fill="#0e0f0a" cx="0.00" cy="0.00" transform="translate(345.54,90.00) rotate(39.9)" rx="3.54" ry="3.33"/>
<ellipse fill="#0e0f0a" cx="0.00" cy="0.00" transform="translate(146.86,94.79) rotate(127.4)" rx="3.57" ry="3.43"/>
<circle fill="#0e0f0a" cx="360.00" cy="99.68" r="3.45"/>
<ellipse fill="#0e0f0a" cx="0.00" cy="0.00" transform="translate(132.93,105.08) rotate(-36.7)" rx="3.61" ry="3.40"/>
<path fill="#5254ff" d="
  M 271.17 164.38
  Q 270.95 164.33 270.69 164.18
  Q 270.20 163.90 270.16 163.34
  Q 268.58 141.40 266.99 118.88
  Q 266.65 114.20 265.05 110.18
  A 1.24 1.20 1.0 0 0 264.36 109.49
  L 253.57 105.21
  Q 252.33 104.72 253.66 104.85
  L 272.33 106.64
  Q 273.98 106.80 274.01 108.45
  Q 274.58 141.33 275.08 174.15
  Q 275.11 176.13 273.83 177.64
  Q 271.87 179.98 271.87 176.93
  L 271.87 165.24
  Q 271.87 164.52 271.17 164.38
  Z"
/>
<ellipse fill="#0e0f0a" cx="0.00" cy="0.00" transform="translate(373.65,110.77) rotate(44.9)" rx="3.66" ry="3.47"/>
<ellipse fill="#0e0f0a" cx="0.00" cy="0.00" transform="translate(119.80,116.80) rotate(-34.5)" rx="3.69" ry="3.42"/>
<path fill="#5254ff" d="
  M 237.33 140.99
  Q 237.33 144.15 237.20 147.82
  A 0.74 0.73 -89.6 0 1 236.49 148.53
  L 176.69 150.44
  Q 176.09 150.46 176.20 149.87
  Q 178.79 136.27 182.61 124.95
  A 1.61 1.55 45.5 0 0 182.60 123.90
  L 181.82 121.75
  A 0.96 0.95 -15.3 0 1 182.54 120.49
  Q 197.62 117.71 212.81 116.43
  Q 225.89 115.32 237.92 114.54
  Q 239.86 114.41 238.77 116.02
  C 238.48 116.44 238.32 116.90 238.29 117.40
  Q 237.34 130.20 237.33 140.99
  Z
  M 214.21 125.32
  L 184.11 126.33
  Q 183.12 126.36 182.81 127.30
  Q 179.72 136.80 178.64 146.62
  A 0.40 0.40 0.0 0 0 179.05 147.06
  Q 205.81 146.41 232.43 145.75
  C 237.80 145.61 237.32 140.25 237.04 135.83
  Q 237.03 135.78 236.99 135.74
  Q 236.95 135.71 236.90 135.71
  Q 236.71 135.72 236.69 135.91
  Q 236.35 138.87 236.01 142.10
  A 2.74 2.74 0.0 0 1 233.31 144.56
  L 181.07 145.08
  A 0.31 0.30 -86.8 0 1 180.76 144.73
  Q 181.86 136.72 184.29 128.62
  Q 184.46 128.05 185.06 128.01
  L 213.25 126.16
  Q 223.33 125.61 233.34 124.51
  Q 233.40 124.51 233.42 124.45
  Q 233.44 124.40 233.39 124.38
  Q 233.34 124.36 233.30 124.36
  Q 223.76 124.98 214.21 125.32
  Z"
/>
<path fill="#5254ff" d="
  M 243.30 115.60
  C 250.39 117.21 257.71 119.97 264.95 122.50
  Q 265.48 122.69 265.52 123.25
  L 268.30 163.55
  Q 268.35 164.19 267.70 164.20
  L 239.68 164.91
  Q 238.98 164.92 238.98 164.23
  Q 238.96 138.38 240.13 118.08
  Q 240.32 114.92 243.30 115.60
  Z
  M 253.48 127.48
  A 1.56 1.56 0.0 0 0 252.28 125.97
  L 244.18 124.05
  A 1.56 1.56 0.0 0 0 242.26 125.57
  L 242.27 145.53
  A 1.56 1.56 0.0 0 0 243.92 147.09
  L 252.05 146.64
  A 1.56 1.56 0.0 0 0 253.53 145.08
  L 253.48 127.48
  Z
  M 264.22 130.43
  A 1.24 1.24 0.0 0 0 263.51 129.43
  L 259.32 127.49
  A 1.24 1.24 0.0 0 0 257.56 128.66
  L 258.16 143.94
  A 1.24 1.24 0.0 0 0 259.21 145.11
  L 264.19 145.86
  A 1.24 1.24 0.0 0 0 265.61 144.51
  L 264.22 130.43
  Z"
/>
<ellipse fill="#0e0f0a" cx="0.00" cy="0.00" transform="translate(386.26,122.93) rotate(48.9)" rx="3.57" ry="3.34"/>
<path fill="#fea402" d="
  M 213.25 126.16
  L 214.21 125.32
  Q 223.76 124.98 233.30 124.36
  Q 233.34 124.36 233.39 124.38
  Q 233.44 124.40 233.42 124.45
  Q 233.40 124.51 233.34 124.51
  Q 223.33 125.61 213.25 126.16
  Z"
/>
<ellipse fill="#0e0f0a" cx="0.00" cy="0.00" transform="translate(107.89,129.46) rotate(120.7)" rx="3.53" ry="3.34"/>
<circle fill="#0e0f0a" cx="397.44" cy="136.03" r="3.57"/>
<ellipse fill="#0e0f0a" cx="0.00" cy="0.00" transform="translate(97.20,143.29) rotate(115.8)" rx="3.61" ry="3.38"/>
<ellipse fill="#0e0f0a" cx="0.00" cy="0.00" transform="translate(407.49,150.42) rotate(67.2)" rx="3.62" ry="3.38"/>
<path fill="#5254ff" d="
  M 233.67 151.18
  L 232.71 161.88
  A 0.15 0.15 0.0 0 1 232.56 162.02
  L 175.83 162.00
  A 0.15 0.15 0.0 0 1 175.68 161.85
  L 175.73 152.59
  A 0.15 0.15 0.0 0 1 175.87 152.45
  L 236.97 150.35
  A 0.15 0.15 0.0 0 1 237.13 150.50
  L 237.14 164.59
  A 0.15 0.15 0.0 0 1 236.99 164.74
  L 233.91 164.75
  A 0.15 0.15 0.0 0 1 233.76 164.59
  L 234.25 151.33
  A 0.15 0.15 0.0 0 0 234.16 151.19
  L 233.88 151.06
  A 0.15 0.15 0.0 0 0 233.67 151.18
  Z
  M 221.2012 159.7032
  A 0.27 0.27 0.0 0 0 220.9341 159.4304
  L 182.6762 159.0297
  A 0.27 0.27 0.0 0 0 182.4034 159.2969
  L 182.3988 159.7368
  A 0.27 0.27 0.0 0 0 182.6659 160.0096
  L 220.9238 160.4103
  A 0.27 0.27 0.0 0 0 221.1966 160.1431
  L 221.2012 159.7032
  Z"
/>
<ellipse fill="#0e0f0a" cx="0.00" cy="0.00" transform="translate(87.92,158.14) rotate(127.1)" rx="3.70" ry="3.49"/>
<circle fill="#0e0f0a" cx="416.18" cy="165.71" r="3.47"/>
<path fill="#5254ff" d="
  M 203.16 169.76
  Q 202.89 169.88 202.63 170.38
  A 0.41 0.41 0.0 0 0 202.98 170.98
  L 212.00 171.08
  A 0.11 0.11 0.0 0 1 212.00 171.30
  L 202.69 171.59
  Q 202.13 171.60 201.67 171.90
  Q 199.63 173.22 197.81 171.76
  Q 197.36 171.40 196.77 171.41
  Q 193.74 171.47 190.66 171.10
  Q 190.63 171.10 190.63 171.13
  Q 190.63 171.14 190.63 171.14
  Q 190.63 171.21 190.69 171.20
  Q 193.58 170.72 196.37 170.75
  Q 196.53 170.75 196.53 170.58
  L 196.42 167.09
  Q 196.41 166.79 196.11 166.84
  Q 193.76 167.22 191.06 166.80
  Q 189.64 166.57 191.07 166.46
  Q 193.49 166.27 196.12 166.42
  Q 196.59 166.45 196.61 165.98
  L 196.63 165.66
  Q 196.66 165.18 196.18 165.24
  Q 193.26 165.62 191.16 165.17
  A 0.07 0.07 0.0 0 1 191.17 165.04
  L 197.19 164.70
  Q 197.72 164.67 198.19 164.44
  Q 199.87 163.60 201.60 164.53
  A 2.42 2.41 57.9 0 0 202.86 164.82
  Q 205.50 164.68 208.45 165.12
  C 212.41 165.70 216.14 165.75 219.99 165.84
  A 0.08 0.08 0.0 0 1 219.99 166.00
  L 210.87 166.44
  Q 210.34 166.47 209.97 166.10
  Q 209.35 165.47 208.49 165.49
  Q 205.73 165.54 203.02 165.46
  Q 202.68 165.45 202.73 165.79
  L 202.80 166.22
  Q 202.82 166.40 203.01 166.41
  Q 206.20 166.48 209.58 166.51
  Q 209.70 166.51 209.72 166.63
  Q 209.72 166.68 209.72 166.73
  Q 209.71 166.79 209.66 166.80
  Q 206.55 167.40 203.48 166.91
  Q 202.98 166.83 202.90 167.33
  Q 202.67 168.60 203.16 169.76
  Z"
/>
<path fill="#5254ff" d="
  M 179.84 175.66
  Q 179.03 175.35 178.19 175.54
  Q 177.68 175.64 177.27 175.33
  Q 176.32 174.63 175.23 174.44
  A 1.32 1.31 -86.5 0 1 174.13 173.19
  Q 173.99 169.45 174.08 166.06
  Q 174.10 165.42 174.65 165.04
  Q 175.00 164.79 175.41 164.64
  Q 175.90 164.46 176.24 164.86
  Q 177.54 166.37 177.73 166.99
  Q 179.18 171.75 180.68 176.40
  Q 180.86 176.96 180.53 176.47
  L 180.15 175.91
  Q 180.03 175.73 179.84 175.66
  Z"
/>
<path fill="#5254ff" d="
  M 184.52 166.12
  Q 186.96 165.57 189.43 165.93
  Q 189.60 165.95 189.59 166.12
  L 189.59 166.13
  Q 189.58 166.38 189.34 166.37
  Q 186.88 166.25 184.44 166.18
  Q 184.38 166.18 184.37 166.13
  Q 184.37 166.12 184.37 166.12
  Q 184.37 166.05 184.42 166.10
  Q 184.46 166.14 184.52 166.12
  Z"
/>
<path fill="#5254ff" d="
  M 222.49 178.47
  C 223.30 177.61 224.31 176.73 225.56 176.78
  C 230.93 177.01 232.86 175.50 233.18 169.99
  Q 233.22 169.44 233.00 169.95
  Q 232.37 171.48 231.83 173.20
  Q 231.09 175.58 228.60 175.48
  Q 227.63 175.45 226.71 175.52
  Q 224.61 175.70 225.55 173.81
  L 228.80 167.28
  A 1.72 1.69 4.1 0 1 229.81 166.42
  Q 234.40 164.99 238.54 166.75
  Q 239.05 166.97 239.05 167.53
  L 239.03 177.45
  A 0.30 0.30 0.0 0 1 238.73 177.75
  Q 232.04 177.78 225.27 177.78
  C 224.26 177.78 223.43 178.19 222.49 178.47
  Z"
/>
<path fill="#5254ff" d="
  M 249.49 184.36
  C 249.71 182.52 249.64 180.66 250.07 178.84
  Q 251.62 172.34 255.73 166.64
  Q 256.01 166.26 256.47 166.26
  L 258.20 166.24
  Q 258.67 166.23 258.41 166.62
  Q 252.28 176.01 251.82 187.73
  Q 251.79 188.45 251.07 188.45
  L 242.44 188.43
  Q 242.21 188.43 242.21 188.19
  L 242.22 185.27
  Q 242.22 185.01 242.48 185.02
  L 248.69 185.06
  Q 249.40 185.07 249.49 184.36
  Z"
/>
<ellipse fill="#5254ff" cx="0.00" cy="0.00" transform="translate(193.46,169.81) rotate(-2.3)" rx="2.45" ry="0.15"/>
<path fill="#5254ff" d="
  M 203.16 169.76
  Q 207.76 169.47 212.21 169.89
  Q 212.24 169.89 212.24 169.87
  Q 212.24 169.86 212.24 169.85
  Q 212.24 169.82 212.23 169.82
  Q 207.73 170.42 203.16 169.76
  Z"
/>
<ellipse fill="#0e0f0a" cx="0.00" cy="0.00" transform="translate(80.07,173.73) rotate(114.8)" rx="3.65" ry="3.48"/>
<path fill="#5254ff" d="
  M 302.96 178.39
  A 1.04 1.04 0.0 0 0 304.11 178.95
  L 314.10 176.82
  Q 314.74 176.69 314.73 177.34
  L 314.72 178.73
  Q 314.71 179.37 314.11 179.56
  Q 309.34 181.11 304.27 182.78
  C 302.79 183.27 302.45 185.08 302.48 186.47
  Q 302.48 186.58 302.37 186.58
  L 302.11 186.57
  A 0.06 0.05 12.7 0 1 302.06 186.50
  Q 302.86 181.44 302.11 175.74
  A 0.06 0.06 0.0 0 1 302.17 175.67
  L 302.43 175.68
  Q 302.74 175.69 302.69 175.99
  Q 302.46 177.35 302.96 178.39
  Z"
/>
<path fill="#5254ff" d="
  M 232.01 190.84
  L 224.04 190.88
  A 0.03 0.03 0.0 0 0 224.04 190.94
  L 232.03 191.78
  L 239.88 192.06
  A 0.53 0.53 0.0 0 1 240.39 192.59
  L 240.33 205.77
  A 0.71 0.70 -4.9 0 1 239.74 206.46
  Q 237.56 206.80 235.25 206.74
  Q 227.49 206.53 219.83 205.77
  Q 219.76 205.77 219.76 205.84
  Q 219.76 205.87 219.75 205.89
  Q 219.75 205.95 219.81 205.96
  Q 229.61 207.46 239.78 207.66
  Q 240.37 207.67 240.36 208.26
  L 240.35 211.42
  Q 240.34 212.11 239.70 212.34
  Q 237.46 213.15 235.36 213.15
  Q 227.33 213.16 220.09 212.13
  Q 211.68 210.92 205.60 210.38
  Q 195.84 209.51 186.64 208.11
  Q 181.08 207.26 175.39 205.32
  A 1.51 1.50 -83.6 0 1 174.38 204.05
  L 174.12 201.52
  A 0.51 0.51 0.0 0 1 174.70 200.96
  Q 178.25 201.46 181.75 201.72
  Q 181.93 201.74 181.95 201.56
  L 181.95 201.56
  Q 181.97 201.39 181.80 201.36
  Q 178.22 200.72 174.47 200.02
  A 0.67 0.66 -86.7 0 1 173.92 199.40
  L 173.32 188.26
  A 0.75 0.74 86.1 0 1 174.00 187.47
  L 176.52 187.25
  Q 178.22 187.10 176.52 186.91
  Q 175.21 186.77 174.00 186.75
  Q 173.43 186.74 173.43 186.18
  L 173.38 181.68
  A 2.47 2.47 0.0 0 1 174.90 179.37
  Q 177.60 178.23 180.52 178.53
  Q 181.16 178.60 181.19 177.95
  Q 181.20 177.78 181.14 177.62
  Q 180.92 176.99 181.34 177.51
  Q 181.54 177.76 181.75 178.02
  Q 182.09 178.47 181.93 179.01
  C 180.95 182.28 182.64 187.85 186.88 188.18
  Q 202.42 189.37 216.72 190.41
  A 1.66 1.65 19.6 0 0 218.20 189.71
  Q 219.91 187.30 221.34 184.62
  C 222.58 182.29 224.63 181.46 226.02 179.39
  Q 226.37 178.88 226.99 178.88
  L 238.33 178.87
  Q 239.05 178.86 239.05 179.58
  L 239.04 181.89
  Q 239.04 182.43 239.35 182.87
  Q 239.59 183.21 239.93 183.43
  Q 240.39 183.72 240.39 184.26
  L 240.37 189.84
  A 0.70 0.70 0.0 0 1 239.70 190.54
  L 232.01 190.84
  Z
  M 215.87 197.87
  L 185.48 195.10
  A 0.78 0.78 0.0 0 1 184.77 194.28
  Q 184.83 193.36 185.54 192.79
  Q 186.05 192.38 185.39 192.42
  Q 184.69 192.47 184.48 193.14
  Q 183.78 195.42 183.73 198.12
  Q 183.71 199.40 184.97 199.64
  Q 188.75 200.35 192.50 200.55
  Q 194.47 200.66 196.50 201.61
  Q 199.00 202.78 202.44 202.37
  Q 204.98 202.07 207.31 202.26
  Q 212.01 202.63 216.51 202.86
  A 1.23 1.22 -88.2 0 0 217.80 201.64
  Q 217.82 198.99 217.40 196.62
  Q 217.11 194.98 215.45 195.23
  Q 214.41 195.38 215.42 195.66
  Q 216.29 195.90 216.69 196.63
  A 0.84 0.84 0.0 0 1 215.87 197.87
  Z
  M 189.95 201.90
  A 1.43 1.43 0.0 0 0 188.58 204.05
  L 189.91 206.32
  A 1.43 1.43 0.0 0 0 190.96 207.01
  L 210.32 209.51
  A 1.43 1.43 0.0 0 0 211.60 209.00
  L 213.77 206.38
  A 1.43 1.43 0.0 0 0 212.80 204.05
  L 189.95 201.90
  Z"
/>
<path fill="#5254ff" d="
  M 270.16 183.03
  L 291.16 178.33
  A 0.31 0.31 0.0 0 1 291.54 178.66
  L 290.34 191.77
  A 0.31 0.31 0.0 0 1 290.15 192.02
  L 270.51 200.67
  A 0.31 0.31 0.0 0 1 270.08 200.39
  L 269.92 183.33
  A 0.31 0.31 0.0 0 1 270.16 183.03
  Z
  M 274.85 185.60
  Q 274.85 185.29 275.14 185.20
  Q 280.73 183.49 286.85 181.18
  Q 287.04 181.11 286.98 180.92
  L 286.98 180.91
  Q 286.93 180.73 286.75 180.77
  Q 280.51 182.18 274.16 183.91
  Q 273.32 184.14 273.32 185.01
  L 273.28 197.24
  A 0.37 0.37 0.0 0 0 273.78 197.58
  L 288.40 192.04
  A 1.13 1.12 85.3 0 0 289.11 191.20
  Q 289.59 188.85 289.53 186.21
  Q 289.53 186.07 289.40 186.06
  L 289.39 186.06
  Q 289.22 186.04 289.18 186.20
  Q 288.73 188.33 288.39 190.10
  A 1.04 1.04 0.0 0 1 287.71 190.89
  L 275.33 195.22
  A 0.27 0.26 79.7 0 1 274.98 194.97
  L 274.85 185.60
  Z"
/>
<circle fill="#0e0f0a" cx="423.25" cy="181.63" r="3.47"/>
<path fill="#5254ff" d="
  M 222.49 178.47
  Q 221.78 179.37 218.87 179.70
  A 0.30 0.30 0.0 0 1 218.59 179.57
  Q 218.50 179.45 218.34 179.41
  Q 218.22 179.38 218.35 179.38
  Q 219.28 179.42 220.25 179.21
  Q 221.41 178.96 222.49 178.47
  Z"
/>
<path fill="#5254ff" d="
  M 294.10 195.34
  C 296.75 193.14 296.13 183.02 295.54 179.96
  Q 295.39 179.17 295.65 179.93
  Q 298.06 186.82 295.59 194.00
  Q 295.22 195.10 294.25 195.58
  Q 293.16 196.11 294.10 195.34
  Z"
/>
<ellipse fill="#0e0f0a" cx="0.00" cy="0.00" transform="translate(73.54,190.01) rotate(100.0)" rx="3.63" ry="3.35"/>
<path fill="#5254ff" d="
  M 250.07 197.09
  C 251.27 194.96 252.06 192.52 253.32 190.50
  Q 254.69 188.32 254.19 190.84
  Q 252.36 200.10 252.72 209.88
  Q 252.74 210.37 252.32 210.61
  Q 247.68 213.37 243.00 212.53
  A 0.99 0.99 0.0 0 1 242.19 211.56
  L 242.22 201.43
  Q 242.22 200.80 242.81 200.55
  L 249.23 197.83
  A 1.68 1.67 -86.1 0 0 250.07 197.09
  Z"
/>
<path fill="#5254ff" d="
  M 264.13 194.18
  C 265.93 195.48 265.77 200.44 265.62 203.02
  Q 265.42 206.43 263.24 207.42
  Q 262.65 207.68 262.40 208.28
  Q 261.86 209.58 260.66 210.12
  A 1.88 1.87 70.6 0 1 258.08 208.88
  C 256.69 203.54 256.01 194.67 260.41 190.78
  Q 261.18 190.10 262.10 190.56
  Q 263.95 191.49 263.80 193.46
  Q 263.77 193.91 264.13 194.18
  Z
  M 263.4475 205.1999
  A 4.65 1.89 90.4 0 0 265.3700 200.5632
  A 4.65 1.89 90.4 0 0 263.5125 195.9001
  A 4.65 1.89 90.4 0 0 261.5900 200.5368
  A 4.65 1.89 90.4 0 0 263.4475 205.1999
  Z"
/>
<path fill="#fea402" d="
  M 232.01 190.84
  Q 231.79 190.94 231.72 191.09
  Q 231.67 191.21 231.79 191.40
  Q 231.88 191.55 232.03 191.78
  L 224.04 190.94
  A 0.03 0.03 0.0 0 1 224.04 190.88
  L 232.01 190.84
  Z"
/>
<circle fill="#0e0f0a" cx="428.95" cy="198.03" r="3.58"/>
<ellipse fill="#0e0f0a" cx="0.00" cy="0.00" transform="translate(68.87,206.66) rotate(99.9)" rx="3.70" ry="3.41"/>
<ellipse fill="#0e0f0a" cx="0.00" cy="0.00" transform="translate(433.06,215.03) rotate(75.7)" rx="3.61" ry="3.37"/>
<ellipse fill="#0e0f0a" cx="0.00" cy="0.00" transform="translate(65.45,223.88) rotate(106.2)" rx="3.61" ry="3.40"/>
<circle fill="#0e0f0a" cx="435.59" cy="232.24" r="3.49"/>
<path fill="#5254ff" d="
  M 424.40 235.24
  Q 424.93 245.93 424.72 256.34
  Q 424.32 275.45 419.16 294.11
  Q 417.52 300.05 416.01 305.37
  A 1.59 1.57 7.7 0 1 414.48 306.52
  L 85.23 306.53
  A 1.18 1.17 -7.8 0 1 84.10 305.68
  Q 82.76 300.95 81.36 295.99
  Q 72.94 266.16 75.92 234.35
  A 0.28 0.28 0.0 0 1 76.20 234.10
  L 423.23 234.13
  Q 424.35 234.13 424.40 235.24
  Z
  M 129.42 251.33
  A 0.57 0.56 0.6 0 0 128.89 251.84
  L 128.39 256.73
  Q 128.36 257.03 128.65 257.14
  Q 132.62 258.65 137.24 257.88
  C 142.12 257.08 145.62 251.01 140.27 247.97
  Q 137.43 246.36 134.49 244.73
  A 1.28 1.28 0.0 0 1 134.47 242.51
  Q 135.99 241.63 137.94 242.37
  Q 138.45 242.56 138.48 243.10
  L 138.58 244.53
  Q 138.62 245.20 139.29 245.15
  L 141.18 245.01
  A 0.81 0.80 -87.7 0 0 141.91 244.33
  L 142.56 239.79
  A 0.74 0.74 0.0 0 0 142.00 238.97
  C 137.31 237.86 131.23 237.67 128.98 242.50
  Q 127.80 245.05 129.52 247.43
  C 131.23 249.78 134.44 250.31 136.82 251.86
  A 1.52 1.52 0.0 0 1 136.57 254.54
  Q 134.95 255.20 132.98 254.55
  A 1.02 1.01 2.7 0 1 132.31 253.82
  L 131.86 251.78
  Q 131.73 251.21 131.15 251.24
  L 129.42 251.33
  Z
  M 234.36 254.34
  Q 233.59 253.26 233.61 251.95
  Q 233.62 251.25 232.92 251.26
  L 231.04 251.29
  Q 230.37 251.30 230.28 251.96
  L 229.66 256.47
  Q 229.59 257.02 230.12 257.20
  C 233.63 258.40 241.07 259.10 243.34 255.07
  C 246.86 248.86 239.71 247.17 236.08 244.95
  Q 235.04 244.32 235.30 243.13
  A 1.30 1.29 1.9 0 1 236.38 242.13
  Q 240.49 241.52 240.23 244.35
  Q 240.16 245.17 240.99 245.14
  L 242.50 245.07
  Q 243.09 245.04 243.18 244.46
  L 243.86 240.04
  A 1.04 1.03 -78.9 0 0 243.08 238.87
  C 239.09 237.94 233.99 237.88 231.18 241.24
  C 228.27 244.71 230.42 248.23 234.04 249.64
  Q 236.22 250.49 238.19 251.91
  A 1.53 1.53 0.0 0 1 237.89 254.55
  Q 236.54 255.12 234.97 254.76
  A 1.06 1.01 78.3 0 1 234.36 254.34
  Z
  M 276.41 254.54
  C 272.89 253.62 273.41 246.47 274.10 243.64
  A 1.47 1.45 -8.1 0 1 274.79 242.73
  Q 276.97 241.50 279.25 242.32
  Q 279.74 242.50 279.96 242.97
  Q 280.44 244.00 280.16 245.22
  A 0.42 0.41 5.8 0 0 280.58 245.73
  L 282.86 245.61
  Q 283.57 245.58 283.69 244.88
  L 284.49 239.94
  Q 284.63 239.13 283.83 238.96
  C 279.74 238.06 275.07 237.73 271.52 240.54
  Q 268.06 243.29 267.91 248.09
  C 267.61 258.18 275.49 259.38 283.28 257.20
  Q 283.84 257.04 283.88 256.46
  L 284.29 250.94
  A 0.32 0.32 0.0 0 0 283.94 250.60
  L 281.05 250.77
  Q 280.78 250.79 280.75 251.06
  Q 280.24 255.54 276.41 254.54
  Z
  M 306.5997 246.4373
  A 7.96 7.96 0.0 0 0 298.6815 238.4357
  L 296.5415 238.4245
  A 7.96 7.96 0.0 0 0 288.5400 246.3427
  L 288.5203 250.1027
  A 7.96 7.96 0.0 0 0 296.4385 258.1043
  L 298.5785 258.1155
  A 7.96 7.96 0.0 0 0 306.5800 250.1973
  L 306.5997 246.4373
  Z
  M 362.51 243.70
  A 1.35 1.35 0.0 0 1 363.58 242.17
  Q 367.54 241.38 367.59 244.48
  Q 367.60 244.84 367.92 245.00
  C 369.01 245.54 370.38 245.12 370.57 243.77
  Q 370.87 241.61 371.10 239.74
  Q 371.17 239.17 370.62 239.02
  Q 365.09 237.56 361.21 239.18
  C 357.02 240.94 355.25 246.08 359.82 248.78
  Q 362.27 250.23 365.10 251.54
  A 1.67 1.67 0.0 0 1 365.13 254.56
  C 363.09 255.54 360.76 254.81 360.87 252.09
  A 0.80 0.80 0.0 0 0 360.04 251.25
  L 358.29 251.29
  A 0.79 0.78 -86.9 0 0 357.54 251.97
  L 356.94 256.51
  Q 356.87 257.01 357.35 257.18
  C 361.14 258.49 368.84 259.19 370.88 254.49
  C 373.23 249.10 367.64 246.98 363.81 245.31
  Q 362.69 244.82 362.51 243.70
  Z
  M 148.95 242.08
  L 148.86 254.23
  A 1.31 1.31 0.0 0 1 147.98 255.45
  Q 146.79 255.86 146.57 257.13
  A 0.66 0.66 0.0 0 0 147.23 257.90
  L 155.21 257.77
  A 0.92 0.92 0.0 0 0 156.03 257.23
  Q 156.21 256.84 156.11 256.37
  Q 155.98 255.73 155.34 255.63
  L 154.65 255.52
  Q 153.91 255.40 153.93 254.65
  L 154.20 242.27
  A 1.07 1.07 0.0 0 1 154.85 241.32
  Q 156.42 240.68 156.04 239.14
  Q 155.90 238.57 155.30 238.58
  L 147.40 238.76
  A 0.63 0.62 0.5 0 0 146.79 239.35
  L 146.71 240.56
  A 0.57 0.56 6.9 0 0 147.18 241.15
  L 148.33 241.34
  Q 148.96 241.44 148.95 242.08
  Z
  M 169.89 244.76
  L 168.20 242.07
  A 0.49 0.49 0.0 0 1 168.50 241.33
  Q 170.18 240.92 169.80 239.13
  Q 169.68 238.58 169.12 238.59
  L 160.40 238.74
  A 0.74 0.74 0.0 0 0 159.69 239.31
  Q 159.52 240.04 159.58 240.75
  Q 159.63 241.28 160.16 241.41
  C 162.90 242.05 164.30 245.20 165.75 247.41
  Q 166.02 247.83 165.75 248.24
  Q 162.96 252.36 159.98 255.38
  Q 157.72 257.67 160.94 257.74
  L 166.63 257.87
  Q 167.23 257.88 167.35 257.29
  Q 167.63 255.92 166.40 255.42
  Q 165.63 255.11 166.00 254.37
  Q 166.79 252.77 167.94 251.24
  Q 168.29 250.78 168.60 251.27
  L 170.47 254.18
  Q 171.01 255.01 170.21 255.58
  Q 169.21 256.30 169.49 257.41
  Q 169.61 257.90 170.12 257.89
  L 178.43 257.73
  Q 179.04 257.72 179.20 257.13
  Q 179.33 256.68 179.29 256.20
  Q 179.25 255.70 178.79 255.51
  C 175.92 254.33 174.63 251.46 172.79 249.16
  Q 172.47 248.75 172.71 248.30
  Q 175.29 243.50 178.58 241.45
  C 179.34 240.98 179.35 240.07 179.34 239.28
  Q 179.33 238.69 178.74 238.69
  L 172.03 238.67
  Q 171.45 238.67 171.29 239.23
  Q 170.86 240.69 172.06 241.28
  Q 172.73 241.61 172.31 242.23
  L 170.63 244.77
  Q 170.25 245.34 169.89 244.76
  Z
  M 187.77 242.34
  Q 188.00 247.97 187.79 253.71
  C 187.76 254.63 187.22 255.53 186.22 255.57
  A 1.38 1.37 3.0 0 0 184.92 256.73
  Q 184.89 256.92 184.86 257.11
  Q 184.72 258.09 185.71 257.99
  Q 189.94 257.57 194.75 257.91
  Q 195.84 257.99 195.96 256.90
  L 196.01 256.46
  Q 196.12 255.52 195.17 255.58
  Q 194.15 255.65 193.38 255.20
  Q 192.90 254.92 192.91 254.36
  L 193.13 242.51
  Q 193.14 241.83 193.82 241.84
  Q 194.27 241.84 194.66 242.10
  C 195.60 242.71 195.63 244.31 195.73 245.32
  Q 195.79 245.83 196.30 245.78
  L 198.65 245.56
  Q 199.07 245.52 199.05 245.10
  L 198.74 239.16
  Q 198.70 238.42 197.97 238.47
  Q 190.12 238.99 182.89 238.46
  Q 182.12 238.40 182.09 239.18
  L 181.84 245.08
  Q 181.81 245.85 182.58 245.77
  L 184.48 245.59
  Q 185.03 245.53 185.12 244.98
  C 185.37 243.48 185.26 242.38 186.98 241.79
  Q 187.74 241.54 187.77 242.34
  Z
  M 209.67 241.33
  Q 210.90 240.74 210.65 239.20
  Q 210.54 238.56 209.90 238.58
  L 202.05 238.76
  Q 201.52 238.77 201.33 239.27
  Q 201.03 240.09 201.33 240.89
  Q 201.52 241.39 202.00 241.62
  C 204.35 242.70 206.36 247.77 207.62 250.10
  Q 208.73 252.16 208.05 254.64
  Q 207.89 255.23 207.31 255.38
  L 205.97 255.73
  A 0.97 0.96 -3.2 0 0 205.25 256.53
  L 205.13 257.39
  Q 205.05 257.97 205.63 257.96
  L 215.66 257.75
  A 0.44 0.43 -87.7 0 0 216.08 257.36
  L 216.19 256.01
  Q 216.23 255.55 215.77 255.54
  L 214.21 255.52
  A 1.17 1.16 87.5 0 1 213.08 254.48
  C 212.90 252.81 213.00 251.14 213.83 249.62
  Q 215.56 246.44 217.08 243.74
  C 218.09 241.96 220.03 241.61 219.99 239.29
  A 0.63 0.63 0.0 0 0 219.35 238.67
  L 212.68 238.70
  A 0.40 0.40 0.0 0 0 212.28 239.06
  L 212.13 240.48
  Q 212.06 241.11 212.70 241.18
  Q 212.93 241.20 213.12 241.30
  Q 213.64 241.55 213.41 242.08
  L 211.57 246.28
  Q 211.13 247.29 210.76 246.25
  L 209.32 242.19
  Q 209.11 241.60 209.67 241.33
  Z
  M 255.63 242.63
  A 0.71 0.71 0.0 0 1 256.36 241.96
  L 259.17 242.05
  A 0.72 0.71 77.6 0 1 259.77 242.44
  Q 260.16 243.18 260.05 243.98
  Q 259.98 244.52 260.53 244.51
  L 262.56 244.48
  Q 263.48 244.46 263.62 243.56
  L 264.27 239.23
  A 0.74 0.73 2.5 0 0 263.49 238.39
  Q 256.49 238.91 249.47 238.55
  Q 248.90 238.53 248.73 239.06
  Q 248.50 239.75 248.54 240.47
  A 0.71 0.70 -89.1 0 0 249.18 241.14
  Q 249.56 241.18 249.86 241.44
  Q 250.26 241.79 250.26 242.32
  L 250.25 253.94
  A 1.70 1.69 73.7 0 1 249.47 255.37
  Q 248.59 255.94 248.20 256.94
  A 0.82 0.82 0.0 0 0 249.05 258.06
  Q 255.22 257.43 262.72 258.05
  A 0.89 0.88 6.3 0 0 263.66 257.30
  L 264.38 252.08
  Q 264.47 251.43 263.82 251.46
  L 261.31 251.55
  Q 260.72 251.57 260.72 252.17
  C 260.70 255.09 258.05 255.14 255.95 254.84
  Q 255.25 254.74 255.25 254.03
  L 255.27 250.20
  Q 255.28 249.68 255.80 249.68
  L 260.55 249.69
  A 0.81 0.80 -86.9 0 0 261.36 248.96
  L 261.56 247.04
  Q 261.62 246.47 261.04 246.49
  L 255.86 246.63
  A 0.39 0.39 0.0 0 1 255.45 246.22
  L 255.63 242.63
  Z
  M 317.03 247.12
  Q 319.86 250.44 321.88 254.41
  Q 322.87 256.33 324.19 257.97
  Q 324.52 258.38 325.05 258.34
  L 328.43 258.11
  Q 328.98 258.07 328.99 257.52
  Q 329.09 250.00 329.32 242.66
  Q 329.34 242.24 329.52 241.87
  Q 329.71 241.50 330.12 241.34
  C 331.00 241.01 331.37 240.02 331.14 239.14
  Q 330.98 238.54 330.37 238.58
  Q 326.66 238.82 323.43 238.57
  Q 322.88 238.53 322.82 239.09
  L 322.68 240.47
  Q 322.62 241.09 323.23 241.18
  L 324.20 241.34
  Q 324.77 241.44 324.78 242.01
  L 324.91 248.55
  Q 324.95 250.35 324.02 248.81
  L 318.29 239.28
  Q 317.93 238.69 317.24 238.68
  L 311.11 238.59
  Q 310.55 238.59 310.51 239.14
  L 310.42 240.43
  A 0.72 0.72 0.0 0 0 310.94 241.18
  L 312.39 241.57
  Q 313.07 241.76 313.05 242.47
  L 312.69 254.45
  A 1.02 1.02 0.0 0 1 312.01 255.37
  Q 310.63 255.86 310.70 257.45
  Q 310.72 257.92 311.20 257.92
  L 318.36 257.77
  Q 319.22 257.75 319.24 256.89
  L 319.25 256.44
  Q 319.26 255.62 318.44 255.64
  Q 317.30 255.67 317.01 255.34
  Q 316.74 255.05 316.74 255.00
  L 316.72 247.24
  Q 316.72 246.75 317.03 247.12
  Z
  M 336.80 242.06
  Q 336.80 247.97 336.79 253.98
  C 336.79 254.76 336.30 255.36 335.55 255.56
  A 1.31 1.30 -4.3 0 0 334.59 256.67
  L 334.51 257.41
  Q 334.42 258.24 335.24 258.08
  Q 338.22 257.50 341.15 257.97
  C 346.63 258.85 351.80 256.49 353.09 250.71
  Q 355.13 241.55 347.79 239.11
  C 344.18 237.91 339.43 238.89 335.50 238.59
  Q 334.88 238.54 334.84 239.16
  Q 334.73 240.52 334.73 240.60
  A 0.59 0.56 -84.8 0 0 335.22 241.22
  Q 335.72 241.28 336.21 241.36
  Q 336.80 241.46 336.80 242.06
  Z
  M 139.78 283.19
  L 139.79 294.93
  Q 139.79 295.47 139.43 295.88
  Q 138.96 296.41 138.37 296.87
  Q 137.40 297.62 137.89 298.62
  Q 138.13 299.09 138.65 299.03
  Q 144.97 298.36 151.25 299.10
  A 0.98 0.98 0.0 0 0 152.34 298.24
  L 153.10 291.50
  A 0.57 0.56 -88.7 0 0 152.50 290.87
  L 150.62 291.00
  Q 149.75 291.06 149.54 291.90
  L 148.81 294.69
  A 1.27 1.26 86.2 0 1 148.07 295.54
  Q 146.84 296.06 145.57 295.77
  A 0.89 0.87 -83.4 0 1 144.90 294.91
  Q 144.89 289.99 145.16 283.84
  Q 145.23 282.21 146.81 281.88
  Q 147.57 281.72 147.54 280.94
  L 147.51 280.27
  Q 147.47 279.57 146.77 279.58
  L 138.67 279.74
  Q 138.09 279.75 137.97 280.32
  L 137.88 280.77
  Q 137.74 281.48 138.40 281.77
  L 139.04 282.05
  A 1.25 1.25 0.0 0 1 139.78 283.19
  Z
  M 161.5414 298.7932
  A 10.19 9.45 110.2 0 0 173.9288 292.4931
  A 10.19 9.45 110.2 0 0 168.5786 279.6668
  A 10.19 9.45 110.2 0 0 156.1912 285.9669
  A 10.19 9.45 110.2 0 0 161.5414 298.7932
  Z
  M 189.74 292.16
  L 189.76 294.75
  A 0.75 0.75 0.0 0 1 189.19 295.48
  Q 185.10 296.50 184.00 292.42
  C 183.05 288.86 182.81 282.42 188.26 282.66
  C 190.28 282.75 190.52 284.78 190.18 286.33
  Q 190.13 286.53 190.34 286.52
  L 193.68 286.41
  Q 194.00 286.40 194.04 286.08
  L 194.64 280.55
  Q 194.70 279.97 194.12 279.87
  C 189.36 279.05 184.13 278.83 180.40 282.13
  C 177.90 284.34 177.88 288.31 178.06 291.49
  C 178.54 299.89 187.74 300.13 193.70 298.04
  Q 194.29 297.83 194.26 297.21
  C 194.13 294.76 193.83 291.75 195.13 289.51
  Q 195.56 288.76 194.70 288.75
  L 188.05 288.75
  Q 187.33 288.75 187.19 289.46
  L 186.99 290.49
  Q 186.82 291.39 187.74 291.45
  L 189.16 291.55
  A 0.62 0.61 2.0 0 1 189.74 292.16
  Z
  M 199.80 297.81
  Q 199.59 298.13 199.62 298.32
  Q 199.65 298.49 199.98 298.54
  Q 202.29 298.91 204.51 298.35
  L 208.21 298.64
  Q 208.71 298.68 208.93 298.23
  Q 209.13 297.83 208.97 297.33
  Q 208.83 296.92 208.47 296.73
  Q 208.12 296.55 207.69 296.61
  A 1.12 1.11 86.8 0 1 206.42 295.47
  L 206.82 283.03
  A 1.02 1.00 84.8 0 1 207.60 282.08
  Q 209.02 281.75 209.14 280.26
  Q 209.20 279.57 208.50 279.58
  L 200.27 279.73
  Q 199.76 279.74 199.68 280.25
  Q 199.62 280.69 199.68 281.11
  Q 199.77 281.70 200.35 281.82
  L 201.20 282.00
  Q 201.80 282.13 201.79 282.73
  Q 201.73 288.37 201.80 294.54
  C 201.81 295.87 201.01 296.55 199.90 297.00
  A 0.51 0.50 -18.7 0 0 199.60 297.59
  Q 199.66 297.84 199.80 297.81
  Z
  M 218.37 284.92
  Q 217.91 282.68 220.63 282.60
  A 2.10 2.09 89.5 0 1 222.78 284.72
  L 222.77 285.42
  A 0.63 0.62 89.2 0 0 223.42 286.06
  L 225.50 285.96
  Q 226.18 285.93 226.25 285.25
  L 226.70 280.60
  Q 226.75 280.03 226.20 279.90
  Q 219.45 278.37 215.04 281.04
  C 211.36 283.27 211.93 288.23 215.76 289.98
  Q 218.46 291.22 220.87 292.81
  A 1.56 1.56 0.0 0 1 220.49 295.60
  Q 218.52 296.23 217.19 295.30
  Q 216.64 294.92 216.51 294.27
  L 216.22 292.89
  Q 216.08 292.21 215.38 292.23
  L 213.51 292.28
  Q 213.06 292.30 213.00 292.75
  L 212.50 297.08
  A 0.93 0.93 0.0 0 0 213.06 298.04
  C 217.72 299.97 228.39 299.83 226.85 291.70
  Q 226.49 289.79 224.57 288.85
  Q 222.00 287.58 219.38 286.25
  A 1.95 1.93 -82.5 0 1 218.37 284.92
  Z
  M 236.15 283.01
  Q 236.37 288.71 236.15 294.60
  Q 236.09 296.33 234.45 296.60
  Q 233.47 296.76 233.30 297.74
  Q 233.25 297.99 233.29 298.24
  Q 233.36 298.80 233.93 298.80
  L 243.10 298.73
  A 1.15 1.14 1.3 0 0 244.24 297.65
  L 244.26 297.26
  Q 244.30 296.41 243.46 296.53
  Q 241.17 296.87 241.20 294.31
  Q 241.27 288.77 241.51 283.19
  Q 241.55 282.20 242.46 282.59
  L 242.70 282.69
  Q 243.70 283.12 243.73 284.20
  L 243.80 286.04
  Q 243.83 286.76 244.54 286.72
  L 246.48 286.63
  Q 247.31 286.59 247.28 285.77
  L 247.14 280.24
  Q 247.12 279.40 246.29 279.46
  Q 238.77 280.00 231.31 279.47
  Q 230.55 279.42 230.51 280.18
  L 230.23 286.02
  Q 230.19 286.85 231.02 286.76
  L 232.77 286.58
  Q 233.36 286.52 233.46 285.93
  C 233.68 284.59 233.78 282.45 235.61 282.47
  Q 236.14 282.48 236.15 283.01
  Z
  M 257.36 295.76
  L 257.66 283.03
  A 1.23 1.22 -6.2 0 1 258.60 281.87
  Q 259.74 281.59 259.63 280.36
  Q 259.56 279.59 258.79 279.61
  L 251.12 279.72
  Q 250.61 279.72 250.39 280.19
  Q 250.13 280.73 250.10 281.28
  Q 250.08 281.64 250.44 281.67
  Q 251.28 281.76 252.00 282.17
  Q 252.51 282.46 252.51 283.05
  Q 252.48 288.75 252.51 294.46
  C 252.52 295.73 251.67 296.55 250.59 297.06
  A 0.81 0.81 0.0 0 0 250.35 298.36
  Q 250.50 298.52 250.69 298.65
  Q 251.01 298.87 251.40 298.85
  Q 255.32 298.64 258.83 298.79
  A 0.61 0.60 8.3 0 0 259.44 298.34
  Q 259.59 297.80 259.55 297.25
  Q 259.52 296.81 259.09 296.73
  L 258.00 296.54
  A 0.77 0.77 0.0 0 1 257.36 295.76
  Z
  M 279.92 280.43
  A 0.41 0.40 10.0 0 0 279.60 279.98
  C 275.78 279.20 271.51 278.94 267.98 280.59
  C 263.65 282.63 262.75 288.46 263.71 292.87
  C 265.26 300.07 273.10 299.94 278.64 297.96
  Q 279.29 297.73 279.34 297.04
  L 279.71 292.28
  Q 279.77 291.54 279.03 291.59
  L 276.66 291.76
  A 0.98 0.97 -85.6 0 0 275.78 292.52
  C 275.35 294.43 274.48 296.12 272.24 295.63
  C 268.11 294.73 267.74 284.97 270.92 283.14
  C 273.24 281.80 275.64 283.14 275.27 285.98
  Q 275.17 286.81 275.99 286.76
  L 278.22 286.63
  Q 279.04 286.58 279.15 285.77
  L 279.92 280.43
  Z
  M 291.76 295.56
  C 289.61 296.45 287.49 295.54 287.45 292.95
  A 0.73 0.73 0.0 0 0 286.68 292.24
  L 284.83 292.33
  Q 284.16 292.37 284.09 293.04
  L 283.68 297.22
  Q 283.62 297.76 284.12 297.98
  Q 289.41 300.28 295.03 298.03
  Q 297.88 296.90 298.09 293.82
  C 298.21 291.93 297.86 289.93 295.99 288.99
  Q 293.31 287.65 290.70 286.35
  Q 289.66 285.83 289.42 284.79
  A 1.69 1.68 -12.8 0 1 290.70 282.77
  C 292.96 282.26 294.15 283.37 294.06 285.58
  Q 294.04 286.14 294.60 286.11
  L 296.42 286.01
  Q 297.31 285.96 297.40 285.07
  L 297.86 280.57
  A 0.60 0.60 0.0 0 0 297.40 279.92
  Q 290.97 278.43 286.71 280.75
  Q 282.88 282.85 284.09 287.11
  Q 284.54 288.66 286.02 289.42
  Q 289.15 291.02 291.99 292.80
  A 1.56 1.56 0.0 0 1 291.76 295.56
  Z
  M 316.22 295.09
  Q 316.02 288.94 316.56 283.09
  A 0.94 0.93 85.1 0 1 317.24 282.27
  L 318.42 281.95
  Q 318.93 281.81 319.09 281.31
  Q 319.27 280.80 319.26 280.28
  Q 319.25 279.55 318.52 279.56
  L 310.11 279.72
  A 0.67 0.67 0.0 0 0 309.52 280.07
  L 309.11 280.82
  Q 308.78 281.40 309.42 281.59
  L 310.83 282.02
  A 0.84 0.83 8.4 0 1 311.43 282.82
  L 311.42 294.90
  Q 311.42 295.51 310.98 295.92
  Q 310.32 296.54 309.59 297.07
  Q 309.12 297.40 309.03 297.96
  Q 308.95 298.43 309.29 298.75
  Q 309.63 299.07 310.11 299.02
  Q 316.55 298.38 322.78 299.11
  A 0.74 0.73 -83.5 0 0 323.60 298.45
  L 324.34 291.50
  Q 324.41 290.82 323.74 290.89
  L 321.82 291.09
  A 0.92 0.92 0.0 0 0 321.01 291.83
  L 320.49 294.63
  A 1.16 1.15 -7.2 0 1 319.84 295.46
  Q 318.50 296.08 316.89 295.84
  Q 316.24 295.74 316.22 295.09
  Z
  M 329.56 282.82
  L 329.54 295.19
  Q 329.54 295.81 329.04 296.18
  Q 328.41 296.66 327.88 297.25
  Q 327.29 297.93 327.68 298.69
  Q 327.87 299.08 328.30 299.03
  Q 334.75 298.38 340.99 299.14
  A 0.99 0.99 0.0 0 0 342.09 298.25
  L 342.72 291.42
  Q 342.78 290.81 342.17 290.87
  L 340.01 291.06
  Q 339.04 291.15 339.02 292.12
  C 338.99 294.53 338.07 296.58 335.07 295.75
  Q 334.43 295.57 334.45 294.90
  L 334.80 283.36
  A 1.15 1.15 0.0 0 1 335.72 282.27
  Q 336.49 282.12 337.08 281.70
  Q 337.44 281.43 337.47 280.94
  Q 337.49 280.52 337.43 280.10
  Q 337.34 279.56 336.79 279.57
  L 328.43 279.73
  Q 327.85 279.74 327.77 280.32
  L 327.70 280.75
  Q 327.61 281.42 328.22 281.72
  L 329.18 282.20
  A 0.70 0.69 -76.9 0 1 329.56 282.82
  Z
  M 352.36 293.90
  C 351.15 291.38 351.00 288.55 351.57 285.83
  C 352.11 283.26 354.68 281.62 356.97 283.26
  Q 357.49 283.63 357.57 284.26
  L 357.79 286.06
  Q 357.87 286.65 358.45 286.74
  Q 359.53 286.91 360.65 286.63
  A 1.02 1.00 87.2 0 0 361.41 285.77
  L 362.02 280.54
  Q 362.09 280.00 361.55 279.90
  C 355.09 278.62 347.08 279.27 345.75 286.98
  C 343.88 297.80 352.08 301.35 361.11 297.91
  A 0.55 0.53 -8.1 0 0 361.46 297.46
  L 361.89 292.32
  Q 361.96 291.57 361.21 291.62
  L 359.16 291.75
  Q 358.45 291.80 358.17 292.46
  C 357.77 293.44 357.79 294.47 356.88 295.16
  C 355.25 296.40 353.22 295.68 352.36 293.90
  Z"
/>
<circle fill="#0e0f0a" cx="63.81" cy="241.25" r="3.51"/>
<path fill="#5254ff" d="
  M 341.69 243.26
  A 1.38 1.38 0.0 0 1 343.10 241.92
  L 343.41 241.93
  A 5.30 4.49 -88.5 0 1 347.76 247.34
  L 347.69 250.00
  A 5.30 4.49 -88.5 0 1 343.07 255.18
  L 342.76 255.17
  A 1.38 1.38 0.0 0 1 341.41 253.76
  L 341.69 243.26
  Z"
/>
<ellipse fill="#5254ff" cx="0.00" cy="0.00" transform="translate(297.51,248.46) rotate(87.3)" rx="6.71" ry="3.70"/>
<circle fill="#0e0f0a" cx="436.23" cy="249.88" r="3.59"/>
<circle fill="#0e0f0a" cx="63.94" cy="258.80" r="3.50"/>
<ellipse fill="#0e0f0a" cx="0.00" cy="0.00" transform="translate(435.50,267.78) rotate(95.5)" rx="3.56" ry="3.42"/>
<ellipse fill="#0e0f0a" cx="0.00" cy="0.00" transform="translate(65.46,276.16) rotate(74.7)" rx="3.62" ry="3.39"/>
<ellipse fill="#0e0f0a" cx="0.00" cy="0.00" transform="translate(433.02,284.96) rotate(100.3)" rx="3.63" ry="3.40"/>
<ellipse fill="#5254ff" cx="0.00" cy="0.00" transform="translate(165.13,289.37) rotate(87.4)" rx="6.88" ry="3.69"/>
<ellipse fill="#0e0f0a" cx="0.00" cy="0.00" transform="translate(68.88,293.29) rotate(83.6)" rx="3.69" ry="3.41"/>
<path fill="#fea402" d="
  M 204.51 298.35
  Q 202.29 298.91 199.98 298.54
  Q 199.65 298.49 199.62 298.32
  Q 199.59 298.13 199.80 297.81
  C 200.45 297.59 200.85 297.52 201.52 297.82
  Q 202.82 298.41 204.51 298.35
  Z"
/>
<rect fill="#0e0f0a" x="-3.43" y="-3.63" transform="translate(428.86,301.82) rotate(2.1)" width="6.86" height="7.26" rx="3.12"/>
<ellipse fill="#0e0f0a" cx="0.00" cy="0.00" transform="translate(73.51,310.04) rotate(81.7)" rx="3.65" ry="3.39"/>
<path fill="#5254ff" d="
  M 318.65 410.83
  C 279.63 427.19 237.86 429.29 197.37 416.77
  Q 189.64 414.38 182.88 411.52
  Q 131.23 389.75 101.02 341.56
  Q 93.18 329.07 87.68 314.90
  Q 87.23 313.73 88.48 313.73
  L 412.00 313.74
  A 0.45 0.45 0.0 0 1 412.44 314.11
  Q 412.51 314.48 412.37 314.85
  Q 409.34 322.63 406.64 327.93
  Q 380.62 378.97 330.47 405.32
  Q 325.31 408.03 318.65 410.83
  Z
  M 224.21 343.11
  Q 223.82 341.42 224.04 338.58
  Q 224.04 338.52 223.98 338.51
  Q 222.00 338.03 220.26 338.36
  Q 220.05 338.40 220.04 338.61
  C 219.90 341.19 219.73 345.09 222.52 346.41
  C 224.52 347.37 227.55 347.13 228.79 345.09
  C 230.11 342.91 229.81 339.07 228.54 337.15
  Q 226.69 334.35 224.28 331.58
  A 1.84 1.83 36.3 0 1 223.98 329.66
  Q 224.68 328.03 225.45 328.91
  Q 225.71 329.22 225.74 329.63
  L 225.91 332.03
  Q 225.97 332.84 226.78 332.83
  L 228.54 332.79
  Q 229.20 332.78 229.26 332.12
  C 229.47 329.62 229.16 325.70 226.05 325.22
  Q 220.32 324.35 220.04 330.02
  C 219.71 336.38 227.34 337.08 225.80 343.13
  A 0.82 0.82 0.0 0 1 224.21 343.11
  Z
  M 298.76 328.82
  Q 299.76 330.04 299.29 332.28
  Q 299.26 332.43 299.40 332.47
  Q 301.24 333.01 303.00 332.69
  Q 303.11 332.67 303.13 332.56
  C 303.59 329.52 302.93 325.26 299.05 325.09
  Q 294.35 324.88 293.90 329.58
  C 293.26 336.16 300.91 337.11 299.27 343.35
  A 0.49 0.48 9.2 0 1 298.76 343.71
  L 298.35 343.68
  A 0.67 0.64 -89.1 0 1 297.75 343.04
  L 297.63 338.95
  A 0.69 0.68 0.0 0 0 296.95 338.28
  L 294.49 338.25
  Q 293.91 338.25 293.88 338.82
  C 293.74 341.52 293.68 345.49 296.81 346.63
  C 299.58 347.65 302.89 346.41 303.34 343.18
  C 303.81 339.87 303.07 337.36 300.80 335.04
  C 299.29 333.48 296.68 331.26 297.99 328.89
  Q 298.33 328.29 298.76 328.82
  Z
  M 353.02 329.28
  Q 353.42 331.21 353.18 333.35
  A 0.80 0.79 3.2 0 0 353.98 334.24
  L 356.40 334.22
  Q 356.85 334.22 356.91 333.77
  C 357.40 329.60 356.58 324.13 350.81 325.27
  C 348.40 325.74 347.32 328.29 347.23 330.48
  Q 347.00 335.93 347.19 341.72
  Q 347.35 346.65 352.09 346.97
  Q 353.51 347.07 354.90 346.19
  C 357.33 344.66 357.17 340.42 356.99 337.98
  Q 356.96 337.50 356.49 337.50
  L 353.91 337.51
  A 0.61 0.60 -88.5 0 0 353.31 338.09
  L 353.09 343.20
  A 0.53 0.53 0.0 0 1 352.48 343.70
  L 352.15 343.64
  Q 351.36 343.52 351.33 342.72
  Q 351.12 335.81 351.35 329.82
  Q 351.38 328.98 352.20 328.77
  A 0.67 0.67 0.0 0 1 353.02 329.28
  Z
  M 372.97 329.71
  Q 374.34 327.33 374.72 330.10
  Q 374.85 331.08 374.92 332.16
  Q 374.97 332.79 375.61 332.78
  L 377.56 332.74
  Q 378.23 332.73 378.29 332.06
  C 378.50 329.43 378.06 325.45 374.76 325.08
  C 371.55 324.71 369.49 326.05 369.27 329.44
  Q 368.96 334.18 372.34 336.73
  C 374.39 338.27 375.48 340.73 374.77 343.24
  A 0.67 0.67 0.0 0 1 373.95 343.71
  Q 373.18 343.50 373.11 342.65
  Q 372.94 340.75 373.03 339.09
  Q 373.08 338.26 372.25 338.26
  L 370.21 338.26
  Q 369.27 338.26 369.28 339.20
  C 369.28 342.18 368.78 346.04 372.68 346.81
  Q 377.56 347.77 378.44 343.16
  Q 379.26 338.84 376.27 335.18
  Q 374.93 333.52 373.53 331.68
  Q 372.57 330.40 372.97 329.71
  Z
  M 125.90 329.58
  A 0.62 0.62 0.0 0 1 126.53 328.97
  L 129.32 329.01
  A 0.62 0.62 0.0 0 0 129.95 328.41
  L 130.02 325.98
  A 0.62 0.62 0.0 0 0 129.40 325.34
  L 122.75 325.37
  A 0.62 0.62 0.0 0 0 122.13 325.99
  L 122.15 345.90
  A 0.62 0.62 0.0 0 0 122.71 346.51
  L 125.20 346.75
  A 0.62 0.62 0.0 0 0 125.88 346.14
  L 125.85 337.86
  A 0.62 0.62 0.0 0 1 126.44 337.24
  L 129.12 337.09
  A 0.62 0.62 0.0 0 0 129.71 336.47
  L 129.71 334.25
  A 0.62 0.62 0.0 0 0 129.11 333.63
  L 126.48 333.56
  A 0.62 0.62 0.0 0 1 125.88 332.93
  L 125.90 329.58
  Z
  M 148.23 338.01
  A 0.53 0.53 0.0 0 1 148.77 337.48
  L 151.72 337.51
  A 0.53 0.53 0.0 0 0 152.25 336.96
  L 152.14 334.60
  A 0.53 0.53 0.0 0 0 151.60 334.09
  L 148.81 334.16
  A 0.53 0.53 0.0 0 1 148.27 333.63
  L 148.25 329.48
  A 0.53 0.53 0.0 0 1 148.80 328.95
  L 151.68 329.03
  A 0.53 0.53 0.0 0 0 152.23 328.51
  L 152.26 325.92
  A 0.53 0.53 0.0 0 0 151.73 325.38
  L 145.06 325.37
  A 0.53 0.53 0.0 0 0 144.53 325.90
  L 144.53 346.20
  A 0.53 0.53 0.0 0 0 145.06 346.73
  L 151.82 346.72
  A 0.53 0.53 0.0 0 0 152.35 346.20
  L 152.37 344.03
  A 0.53 0.53 0.0 0 0 151.84 343.49
  L 148.78 343.51
  A 0.53 0.53 0.0 0 1 148.25 342.98
  L 148.23 338.01
  Z
  M 158.73 325.85
  A 0.50 0.50 0.0 0 0 158.23 325.35
  L 155.25 325.35
  A 0.50 0.50 0.0 0 0 154.75 325.85
  L 154.75 346.23
  A 0.50 0.50 0.0 0 0 155.25 346.73
  L 158.23 346.73
  A 0.50 0.50 0.0 0 0 158.73 346.23
  L 158.73 325.85
  Z
  M 167.59 342.94
  A 0.91 0.90 -68.8 0 1 166.22 343.55
  Q 165.56 343.13 165.54 342.35
  Q 165.38 336.29 165.56 329.91
  Q 165.59 328.81 166.67 328.71
  Q 167.38 328.64 167.53 329.34
  Q 167.89 330.98 167.67 332.62
  A 0.61 0.60 3.6 0 0 168.28 333.31
  L 170.70 333.29
  Q 171.10 333.28 171.16 332.89
  Q 171.65 329.34 170.32 326.54
  A 1.67 1.67 0.0 0 0 169.47 325.72
  C 165.85 324.12 162.09 325.32 161.85 329.83
  Q 161.53 335.88 161.86 342.60
  Q 162.05 346.60 166.00 347.00
  Q 166.65 347.07 168.55 346.21
  Q 169.05 345.98 169.48 346.31
  Q 169.88 346.62 170.44 346.70
  Q 171.25 346.83 171.25 346.01
  L 171.25 335.51
  Q 171.25 334.77 170.51 334.78
  L 166.99 334.82
  A 0.73 0.73 0.0 0 0 166.27 335.42
  Q 166.02 336.78 167.07 337.47
  Q 167.57 337.79 167.65 338.38
  Q 168.00 340.78 167.59 342.94
  Z
  M 178.26 337.67
  A 0.41 0.41 0.0 0 1 178.68 337.26
  L 179.74 337.29
  A 0.41 0.41 0.0 0 1 180.14 337.70
  L 180.20 346.27
  A 0.41 0.41 0.0 0 0 180.60 346.68
  L 183.79 346.73
  A 0.41 0.41 0.0 0 0 184.21 346.32
  L 184.23 325.79
  A 0.41 0.41 0.0 0 0 183.82 325.38
  L 180.57 325.35
  A 0.41 0.41 0.0 0 0 180.16 325.76
  L 180.14 333.30
  A 0.41 0.41 0.0 0 1 179.76 333.71
  L 178.70 333.77
  A 0.41 0.41 0.0 0 1 178.27 333.37
  L 178.23 325.80
  A 0.41 0.41 0.0 0 0 177.82 325.39
  L 174.67 325.37
  A 0.41 0.41 0.0 0 0 174.26 325.78
  L 174.21 346.30
  A 0.41 0.41 0.0 0 0 174.62 346.71
  L 177.82 346.71
  A 0.41 0.41 0.0 0 0 178.23 346.30
  L 178.26 337.67
  Z
  M 192.15 329.49
  A 0.53 0.53 0.0 0 1 192.64 328.97
  L 193.96 328.87
  A 0.53 0.53 0.0 0 0 194.46 328.34
  L 194.44 325.91
  A 0.53 0.53 0.0 0 0 193.91 325.38
  L 186.38 325.37
  A 0.53 0.53 0.0 0 0 185.85 325.91
  L 185.89 328.38
  A 0.53 0.53 0.0 0 0 186.40 328.90
  L 187.62 328.97
  A 0.53 0.53 0.0 0 1 188.13 329.50
  L 188.04 346.16
  A 0.53 0.53 0.0 0 0 188.57 346.70
  L 191.58 346.72
  A 0.53 0.53 0.0 0 0 192.11 346.20
  L 192.15 329.49
  Z
  M 217.56 326.03
  A 0.68 0.68 0.0 0 0 216.88 325.35
  L 214.20 325.35
  A 0.68 0.68 0.0 0 0 213.52 326.03
  L 213.52 346.05
  A 0.68 0.68 0.0 0 0 214.20 346.73
  L 216.88 346.73
  A 0.68 0.68 0.0 0 0 217.56 346.05
  L 217.56 326.03
  Z
  M 248.94 343.19
  A 0.60 0.60 0.0 0 1 249.54 343.72
  L 249.83 346.18
  A 0.60 0.60 0.0 0 0 250.42 346.71
  L 252.97 346.75
  A 0.60 0.60 0.0 0 0 253.57 346.06
  L 250.39 325.88
  A 0.60 0.60 0.0 0 0 249.80 325.37
  L 246.13 325.38
  A 0.60 0.60 0.0 0 0 245.54 325.89
  L 242.59 346.07
  A 0.60 0.60 0.0 0 0 243.20 346.75
  L 245.82 346.69
  A 0.60 0.60 0.0 0 0 246.40 346.18
  L 246.77 343.73
  A 0.60 0.60 0.0 0 1 247.35 343.22
  L 248.94 343.19
  Z
  M 269.60 328.76
  A 0.53 0.52 86.9 0 1 270.16 329.27
  L 270.32 333.54
  Q 270.35 334.24 271.05 334.24
  L 273.29 334.23
  Q 273.92 334.23 273.99 333.60
  C 274.26 331.06 274.25 326.04 270.95 325.34
  Q 265.29 324.12 264.61 329.62
  Q 264.18 333.11 264.64 342.48
  C 264.87 347.15 269.67 348.17 272.89 345.65
  Q 273.34 345.29 273.49 344.73
  Q 274.33 341.64 273.97 337.96
  Q 273.92 337.51 273.47 337.51
  L 271.04 337.51
  Q 270.33 337.50 270.31 338.21
  L 270.22 342.75
  A 0.98 0.97 -3.4 0 1 269.37 343.70
  L 268.94 343.76
  A 0.58 0.57 -3.5 0 1 268.29 343.19
  L 268.25 329.80
  Q 268.24 328.87 269.17 328.80
  L 269.60 328.76
  Z
  M 280.98 333.76
  A 0.40 0.40 0.0 0 1 280.57 333.36
  L 280.51 325.75
  A 0.40 0.40 0.0 0 0 280.11 325.35
  L 276.89 325.36
  A 0.40 0.40 0.0 0 0 276.49 325.76
  L 276.51 346.29
  A 0.40 0.40 0.0 0 0 276.91 346.69
  L 280.08 346.69
  A 0.40 0.40 0.0 0 0 280.48 346.29
  L 280.57 337.64
  A 0.40 0.40 0.0 0 1 280.97 337.24
  L 281.98 337.25
  A 0.40 0.40 0.0 0 1 282.38 337.64
  L 282.49 346.25
  A 0.40 0.40 0.0 0 0 282.87 346.64
  L 286.05 346.73
  A 0.40 0.40 0.0 0 0 286.46 346.33
  L 286.48 325.79
  A 0.40 0.40 0.0 0 0 286.08 325.39
  L 282.84 325.38
  A 0.40 0.40 0.0 0 0 282.44 325.78
  L 282.39 333.34
  A 0.40 0.40 0.0 0 1 282.00 333.74
  L 280.98 333.76
  Z
  M 320.81 337.23
  Q 321.53 337.30 321.54 338.02
  L 321.67 345.94
  Q 321.69 346.70 322.44 346.71
  L 324.97 346.74
  Q 325.61 346.75 325.60 346.11
  C 325.57 343.41 326.00 338.06 324.62 336.04
  Q 324.40 335.72 324.56 335.38
  Q 326.39 331.31 324.93 327.37
  C 323.90 324.58 318.68 325.31 316.34 325.39
  Q 315.76 325.41 315.76 325.98
  L 315.76 346.24
  Q 315.76 346.73 316.24 346.73
  L 319.15 346.72
  Q 319.77 346.72 319.77 346.10
  L 319.77 337.75
  Q 319.77 337.11 320.40 337.18
  L 320.81 337.23
  Z
  M 333.00 337.33
  Q 331.88 331.66 331.29 326.18
  Q 331.19 325.26 330.27 325.30
  L 328.45 325.39
  A 0.79 0.79 0.0 0 0 327.70 326.30
  L 330.50 346.03
  Q 330.60 346.71 331.28 346.72
  L 334.73 346.74
  Q 335.47 346.75 335.56 346.02
  L 338.27 325.97
  Q 338.35 325.34 337.72 325.34
  L 335.26 325.35
  Q 334.62 325.35 334.54 325.99
  L 333.22 337.32
  Q 333.14 338.03 333.00 337.33
  Z
  M 344.4824 325.9465
  A 0.61 0.61 0.0 0 0 343.8713 325.3376
  L 341.0513 325.3425
  A 0.61 0.61 0.0 0 0 340.4424 325.9535
  L 340.4776 346.1135
  A 0.61 0.61 0.0 0 0 341.0887 346.7224
  L 343.9087 346.7175
  A 0.61 0.61 0.0 0 0 344.5176 346.1065
  L 344.4824 325.9465
  Z
  M 363.24 338.06
  A 0.58 0.58 0.0 0 1 363.83 337.48
  L 366.50 337.50
  A 0.58 0.58 0.0 0 0 367.09 336.92
  L 367.07 334.67
  A 0.58 0.58 0.0 0 0 366.48 334.09
  L 363.84 334.13
  A 0.58 0.58 0.0 0 1 363.25 333.55
  L 363.25 329.56
  A 0.58 0.58 0.0 0 1 363.84 328.98
  L 366.61 329.00
  A 0.58 0.58 0.0 0 0 367.19 328.44
  L 367.25 325.96
  A 0.58 0.58 0.0 0 0 366.67 325.37
  L 360.09 325.36
  A 0.58 0.58 0.0 0 0 359.51 325.94
  L 359.53 346.12
  A 0.58 0.58 0.0 0 0 360.11 346.70
  L 366.74 346.73
  A 0.58 0.58 0.0 0 0 367.33 346.15
  L 367.35 344.05
  A 0.58 0.58 0.0 0 0 366.76 343.46
  L 363.82 343.53
  A 0.58 0.58 0.0 0 1 363.23 342.95
  L 363.24 338.06
  Z
  M 137.86 338.07
  L 137.91 345.93
  Q 137.92 346.70 138.68 346.71
  L 141.00 346.73
  Q 141.74 346.74 141.77 346.00
  Q 141.96 341.74 141.32 337.22
  Q 141.25 336.72 140.92 336.35
  Q 140.76 336.16 140.68 335.92
  Q 140.56 335.59 140.71 335.27
  Q 142.63 331.36 141.04 327.31
  C 139.95 324.54 134.67 325.33 132.27 325.39
  Q 131.85 325.40 131.85 325.82
  L 131.86 346.19
  Q 131.86 346.78 132.45 346.76
  L 135.45 346.64
  A 0.58 0.58 0.0 0 0 136.01 346.06
  L 135.98 337.76
  Q 135.98 336.99 136.74 337.11
  L 137.08 337.17
  Q 137.85 337.29 137.86 338.07
  Z
  M 210.44 343.21
  C 210.83 338.56 210.97 332.69 210.24 328.06
  A 2.96 2.94 -0.6 0 0 207.71 325.60
  Q 205.39 325.29 202.22 325.32
  Q 201.02 325.33 201.02 326.53
  L 201.03 345.51
  Q 201.03 346.80 202.31 346.80
  Q 205.06 346.81 207.36 346.48
  Q 210.19 346.06 210.44 343.21
  Z
  M 236.29 338.47
  C 238.97 338.80 241.22 337.60 241.55 334.70
  C 241.97 331.00 242.20 325.23 236.95 325.38
  C 235.42 325.42 233.89 325.30 232.38 325.42
  Q 231.82 325.46 231.82 326.01
  L 231.77 345.99
  A 0.73 0.72 90.0 0 0 232.49 346.72
  L 234.95 346.73
  Q 235.62 346.74 235.62 346.06
  L 235.63 339.06
  Q 235.63 338.39 236.29 338.47
  Z
  M 256.78 329.54
  L 256.79 346.25
  Q 256.79 346.72 257.26 346.72
  L 260.01 346.73
  Q 260.50 346.73 260.50 346.24
  L 260.50 329.72
  Q 260.50 329.17 261.02 329.00
  Q 261.56 328.83 262.16 328.91
  Q 262.96 329.03 262.98 328.22
  L 263.05 326.22
  Q 263.07 325.38 262.23 325.38
  L 254.97 325.38
  Q 254.32 325.38 254.31 326.03
  L 254.28 328.02
  Q 254.27 328.71 254.92 328.89
  Q 255.48 329.05 256.04 328.94
  Q 256.78 328.78 256.78 329.54
  Z
  M 310.11 343.52
  A 0.63 0.63 0.0 0 1 309.47 342.89
  L 309.49 338.12
  A 0.63 0.63 0.0 0 1 310.12 337.49
  L 312.57 337.50
  A 0.63 0.63 0.0 0 0 313.21 336.87
  L 313.22 334.73
  A 0.63 0.63 0.0 0 0 312.58 334.09
  L 310.12 334.15
  A 0.63 0.63 0.0 0 1 309.48 333.52
  L 309.48 329.59
  A 0.63 0.63 0.0 0 1 310.11 328.96
  L 312.69 328.96
  A 0.63 0.63 0.0 0 0 313.32 328.33
  L 313.34 326.00
  A 0.63 0.63 0.0 0 0 312.71 325.37
  L 306.16 325.38
  A 0.63 0.63 0.0 0 0 305.53 326.01
  L 305.55 346.08
  A 0.63 0.63 0.0 0 0 306.18 346.71
  L 312.85 346.72
  A 0.63 0.63 0.0 0 0 313.48 346.08
  L 313.45 344.12
  A 0.63 0.63 0.0 0 0 312.81 343.50
  L 310.11 343.52
  Z
  M 184.90 390.26
  A 0.97 0.96 18.1 0 1 184.50 389.48
  L 184.48 370.08
  A 0.78 0.78 0.0 0 0 183.69 369.30
  L 180.31 369.35
  Q 179.74 369.36 179.74 369.94
  Q 179.76 379.18 179.73 388.58
  C 179.71 396.50 191.41 396.47 191.32 388.33
  Q 191.20 378.48 191.33 369.98
  A 0.63 0.63 0.0 0 0 190.71 369.35
  L 187.31 369.33
  Q 186.70 369.33 186.70 369.94
  L 186.66 389.64
  A 0.84 0.83 70.7 0 1 186.35 390.29
  Q 185.67 390.80 184.90 390.26
  Z
  M 201.37 379.50
  Q 201.95 377.99 204.06 377.93
  Q 205.55 375.67 204.04 371.49
  Q 203.34 369.57 201.36 369.28
  C 199.56 369.01 195.72 368.95 194.85 371.08
  C 193.77 373.70 194.00 377.33 195.20 379.45
  Q 196.51 381.76 199.08 383.97
  C 200.82 385.46 200.88 387.49 200.70 389.58
  A 1.00 1.00 0.0 0 1 198.71 389.63
  Q 198.41 387.52 198.59 385.07
  A 0.60 0.60 0.0 0 0 197.98 384.43
  L 194.71 384.47
  Q 194.22 384.48 194.19 384.97
  Q 194.02 388.77 194.67 391.35
  C 195.50 394.65 200.42 395.09 202.82 393.56
  Q 204.62 392.40 205.00 389.52
  Q 205.72 384.01 201.37 379.50
  Z
  M 211.28 390.64
  A 0.58 0.58 0.0 0 1 211.86 390.11
  L 214.13 390.13
  A 0.58 0.58 0.0 0 1 214.70 390.64
  L 215.07 393.58
  A 0.58 0.58 0.0 0 0 215.64 394.08
  L 218.71 394.11
  A 0.58 0.58 0.0 0 0 219.29 393.44
  L 215.93 369.89
  A 0.58 0.58 0.0 0 0 215.36 369.39
  L 210.75 369.36
  A 0.58 0.58 0.0 0 0 210.18 369.86
  L 206.65 393.47
  A 0.58 0.58 0.0 0 0 207.23 394.13
  L 210.47 394.09
  A 0.58 0.58 0.0 0 0 211.04 393.55
  L 211.28 390.64
  Z
  M 249.64 373.57
  L 249.83 379.05
  Q 249.85 379.51 250.31 379.51
  L 253.95 379.49
  Q 254.24 379.49 254.25 379.20
  C 254.50 374.95 254.82 369.08 248.78 369.15
  C 244.73 369.19 243.09 371.69 243.05 375.54
  Q 243.00 380.81 242.97 387.10
  Q 242.96 390.05 244.06 391.85
  C 246.41 395.72 253.05 395.11 254.07 390.38
  Q 254.67 387.63 254.36 384.24
  Q 254.29 383.52 253.57 383.52
  L 250.47 383.53
  Q 249.74 383.53 249.79 384.26
  Q 249.99 387.33 249.39 390.36
  A 0.37 0.37 0.0 0 1 248.87 390.62
  L 248.48 390.43
  Q 247.72 390.06 247.72 389.22
  L 247.73 374.43
  Q 247.73 373.53 248.56 373.21
  L 248.90 373.08
  A 0.55 0.55 0.0 0 1 249.64 373.57
  Z
  M 261.03 390.44
  A 0.46 0.46 0.0 0 1 261.49 390.06
  L 263.88 390.09
  A 0.46 0.46 0.0 0 1 264.33 390.48
  L 264.82 393.72
  A 0.46 0.46 0.0 0 0 265.28 394.11
  L 268.46 394.09
  A 0.46 0.46 0.0 0 0 268.91 393.56
  L 265.24 369.74
  A 0.46 0.46 0.0 0 0 264.78 369.35
  L 259.92 369.41
  A 0.46 0.46 0.0 0 0 259.47 369.81
  L 256.31 393.57
  A 0.46 0.46 0.0 0 0 256.76 394.09
  L 260.00 394.13
  A 0.46 0.46 0.0 0 0 260.46 393.74
  L 261.03 390.44
  Z
  M 278.83 380.35
  L 275.12 369.91
  Q 274.94 369.41 274.40 369.40
  L 272.02 369.37
  Q 271.40 369.36 271.40 369.98
  L 271.37 393.48
  Q 271.37 394.08 271.98 394.09
  L 274.85 394.13
  Q 275.52 394.14 275.52 393.46
  L 275.40 383.69
  Q 275.37 381.62 276.06 383.57
  Q 277.67 388.12 279.36 392.88
  Q 279.74 393.94 280.60 394.08
  Q 281.50 394.23 282.47 394.08
  Q 283.15 393.98 283.15 393.29
  L 283.03 369.94
  Q 283.02 369.35 282.44 369.36
  L 279.51 369.41
  Q 278.95 369.42 278.96 369.99
  L 279.12 380.29
  Q 279.14 381.19 278.83 380.35
  Z
  M 293.07 390.17
  A 0.57 0.57 0.0 0 1 293.61 390.68
  L 293.92 393.59
  A 0.57 0.57 0.0 0 0 294.48 394.10
  L 297.75 394.13
  A 0.57 0.57 0.0 0 0 298.32 393.48
  L 294.81 369.89
  A 0.57 0.57 0.0 0 0 294.25 369.41
  L 289.66 369.39
  A 0.57 0.57 0.0 0 0 289.10 369.88
  L 285.57 393.47
  A 0.57 0.57 0.0 0 0 286.13 394.13
  L 289.34 394.11
  A 0.57 0.57 0.0 0 0 289.90 393.62
  L 290.30 390.55
  A 0.57 0.57 0.0 0 1 290.90 390.06
  L 293.07 390.17
  Z
  M 301.68 394.25
  C 307.31 394.19 312.19 394.69 312.21 387.23
  Q 312.23 380.72 312.01 374.86
  C 311.75 368.13 305.95 369.25 301.33 369.38
  Q 300.75 369.39 300.75 369.98
  L 300.63 393.53
  Q 300.63 394.12 301.21 394.21
  Q 301.44 394.25 301.68 394.25
  Z
  M 318.92 390.50
  A 0.47 0.47 0.0 0 1 319.37 390.10
  L 321.31 390.04
  A 0.47 0.47 0.0 0 1 321.79 390.42
  L 322.45 393.75
  A 0.47 0.47 0.0 0 0 322.92 394.13
  L 326.36 394.10
  A 0.47 0.47 0.0 0 0 326.82 393.56
  L 323.07 369.78
  A 0.47 0.47 0.0 0 0 322.61 369.38
  L 317.92 369.38
  A 0.47 0.47 0.0 0 0 317.46 369.78
  L 313.88 393.62
  A 0.47 0.47 0.0 0 0 314.35 394.16
  L 317.97 394.16
  A 0.47 0.47 0.0 0 0 318.44 393.76
  L 318.92 390.50
  Z
  M 234.2620 382.3365
  A 0.40 0.40 0.0 0 0 233.8627 381.9358
  L 227.2027 381.9242
  A 0.40 0.40 0.0 0 0 226.8020 382.3235
  L 226.7980 384.6035
  A 0.40 0.40 0.0 0 0 227.1973 385.0042
  L 233.8573 385.0158
  A 0.40 0.40 0.0 0 0 234.2580 384.6165
  L 234.2620 382.3365
  Z"
/>
<ellipse fill="#0e0f0a" cx="0.00" cy="0.00" transform="translate(423.22,318.43) rotate(113.7)" rx="3.59" ry="3.40"/>
<circle fill="#0e0f0a" cx="79.99" cy="326.27" r="3.56"/>
<rect fill="#5254ff" x="-0.92" y="-2.65" transform="translate(136.90,331.22) rotate(0.1)" width="1.84" height="5.30" rx="0.70"/>
<rect fill="#5254ff" x="204.79" y="328.68" width="1.94" height="15.04" rx="0.79"/>
<rect fill="#5254ff" x="-0.95" y="-3.37" transform="translate(236.59,332.01) rotate(0.8)" width="1.90" height="6.74" rx="0.91"/>
<rect fill="#5254ff" x="-0.87" y="-2.61" transform="translate(320.64,331.23) rotate(0.4)" width="1.74" height="5.22" rx="0.76"/>
<ellipse fill="#0e0f0a" cx="0.00" cy="0.00" transform="translate(416.15,334.36) rotate(121.0)" rx="3.53" ry="3.37"/>
<path fill="#5254ff" d="
  M 247.36 339.29
  C 247.45 337.78 247.74 335.49 248.38 333.90
  Q 248.42 333.82 248.35 333.87
  Q 248.35 333.87 248.34 333.87
  Q 248.34 333.88 248.34 333.89
  Q 248.87 336.56 249.12 338.97
  A 0.74 0.74 0.0 0 1 248.54 339.77
  L 248.05 339.88
  Q 247.31 340.04 247.36 339.29
  Z"
/>
<ellipse fill="#0e0f0a" cx="0.00" cy="0.00" transform="translate(87.98,341.86) rotate(65.1)" rx="3.66" ry="3.51"/>
<circle fill="#0e0f0a" cx="407.48" cy="349.62" r="3.53"/>
<ellipse fill="#0e0f0a" cx="0.00" cy="0.00" transform="translate(97.13,356.66) rotate(54.0)" rx="3.60" ry="3.39"/>
<ellipse fill="#0e0f0a" cx="0.00" cy="0.00" transform="translate(397.43,363.93) rotate(-34.8)" rx="3.62" ry="3.48"/>
<ellipse fill="#0e0f0a" cx="0.00" cy="0.00" transform="translate(107.92,370.54) rotate(46.8)" rx="3.51" ry="3.32"/>
<path fill="#0e0f0a" d="
  M 204.06 377.93
  Q 201.95 377.99 201.37 379.50
  Q 200.20 378.17 199.11 376.67
  Q 197.69 374.71 198.91 373.43
  Q 199.80 372.48 200.31 373.68
  Q 200.94 375.17 200.70 376.89
  Q 200.60 377.59 201.31 377.66
  L 204.06 377.93
  Z"
/>
<rect fill="#5254ff" x="-1.06" y="-8.65" transform="translate(306.37,381.85) rotate(0.1)" width="2.12" height="17.30" rx="0.28"/>
<ellipse fill="#0e0f0a" cx="0.00" cy="0.00" transform="translate(386.27,377.14) rotate(125.5)" rx="3.59" ry="3.35"/>
<path fill="#5254ff" d="
  M 212.92 378.74
  Q 213.69 382.07 213.90 385.35
  Q 213.94 386.03 213.26 386.00
  L 212.53 385.97
  Q 211.95 385.95 212.00 385.37
  Q 212.28 382.07 212.90 378.40
  Q 212.91 378.37 212.88 378.37
  Q 212.88 378.38 212.88 378.37
  Q 212.88 378.37 212.88 378.39
  Q 212.88 378.57 212.92 378.74
  Z"
/>
<path fill="#5254ff" d="
  M 262.40 378.94
  Q 262.55 377.80 262.71 378.93
  L 263.66 385.39
  Q 263.75 386.03 263.11 386.01
  L 262.23 385.98
  Q 261.51 385.96 261.60 385.24
  L 262.40 378.94
  Z"
/>
<path fill="#5254ff" d="
  M 291.85 378.75
  Q 291.87 378.69 291.90 378.65
  Q 291.92 378.61 291.87 378.62
  Q 291.87 378.62 291.87 378.62
  Q 291.87 378.63 291.87 378.63
  Q 292.47 382.05 292.88 385.45
  Q 292.94 385.98 292.41 385.99
  L 291.51 386.02
  Q 290.86 386.04 290.87 385.39
  Q 290.93 381.87 291.85 378.75
  Z"
/>
<path fill="#5254ff" d="
  M 321.40 385.39
  A 0.56 0.55 86.8 0 1 320.85 386.01
  L 319.95 386.00
  A 0.48 0.48 0.0 0 1 319.48 385.45
  L 320.38 379.00
  Q 320.57 377.66 320.71 379.00
  L 321.40 385.39
  Z"
/>
<circle fill="#0e0f0a" cx="119.82" cy="383.17" r="3.53"/>
<circle fill="#0e0f0a" cx="373.64" cy="389.27" r="3.53"/>
<circle fill="#0e0f0a" cx="132.95" cy="394.91" r="3.50"/>
<circle fill="#0e0f0a" cx="360.02" cy="400.35" r="3.37"/>
<ellipse fill="#0e0f0a" cx="0.00" cy="0.00" transform="translate(146.95,405.08) rotate(42.7)" rx="3.61" ry="3.45"/>
<ellipse fill="#0e0f0a" cx="0.00" cy="0.00" transform="translate(345.50,410.05) rotate(-24.5)" rx="3.55" ry="3.30"/>
<ellipse fill="#0e0f0a" cx="0.00" cy="0.00" transform="translate(161.89,414.06) rotate(14.5)" rx="3.56" ry="3.36"/>
<ellipse fill="#0e0f0a" cx="0.00" cy="0.00" transform="translate(330.26,418.28) rotate(-19.4)" rx="3.59" ry="3.32"/>
<ellipse fill="#0e0f0a" cx="0.00" cy="0.00" transform="translate(177.54,421.65) rotate(22.2)" rx="3.61" ry="3.39"/>
<ellipse fill="#0e0f0a" cx="0.00" cy="0.00" transform="translate(314.07,424.91) rotate(-27.6)" rx="3.57" ry="3.34"/>
<ellipse fill="#0e0f0a" cx="0.00" cy="0.00" transform="translate(194.06,427.78) rotate(24.8)" rx="3.59" ry="3.42"/>
<ellipse fill="#0e0f0a" cx="0.00" cy="0.00" transform="translate(297.42,430.19) rotate(-11.4)" rx="3.51" ry="3.32"/>
<circle fill="#0e0f0a" cx="210.92" cy="432.15" r="3.44"/>
<circle fill="#0e0f0a" cx="280.27" cy="433.90" r="3.42"/>
<ellipse fill="#0e0f0a" cx="0.00" cy="0.00" transform="translate(228.26,435.10) rotate(6.7)" rx="3.58" ry="3.37"/>
<circle fill="#0e0f0a" cx="262.99" cy="435.82" r="3.52"/>
<circle fill="#0e0f0a" cx="245.64" cy="436.26" r="3.50"/>
</svg>
